<svg xmlns="http://www.w3.org/2000/svg" viewBox="0 0 1440 350"><defs><style>.cls-1{fill:#fff;}</style></defs><title>资源 2</title><g id="图层_2" data-name="图层 2"><g id="Layer_2" data-name="Layer 2"><path class="cls-1" d="M850.64,345.65V320.26a7.84,7.84,0,1,0-2.54,0v26.44l3.27,3.29H855Zm-5.51-33.15a4.23,4.23,0,1,1,4.24,4.26A4.26,4.26,0,0,1,845.13,312.5Z"/><path class="cls-1" d="M134.88,320.26a7.84,7.84,0,1,0-2.54,0v25.39L128,350h3.6l3.27-3.29Zm-5.51-7.76a4.23,4.23,0,1,1,4.23,4.26A4.26,4.26,0,0,1,129.38,312.5Z"/><path class="cls-1" d="M876.41,251V128a7.83,7.83,0,1,0-2.45,0V252l21.47,21.73V350h2.45V272.74ZM871,120.22a4.23,4.23,0,1,1,4.24,4.26A4.27,4.27,0,0,1,871,120.22Z"/><path class="cls-1" d="M827.7,242.54V176.86a7.86,7.86,0,1,0-2.45,0v66.69l41.9,42.4v64h2.45V284.94Zm-5.51-73.45a4.23,4.23,0,1,1,4.23,4.27A4.27,4.27,0,0,1,822.19,169.09Z"/><path class="cls-1" d="M255.31,243.56V147.42a7.81,7.81,0,1,0-2.45,0v95.13L211,284.94V350h2.45V286Zm-5.4-103.92a4.23,4.23,0,1,1,4.23,4.27A4.25,4.25,0,0,1,249.91,139.64Z"/><path class="cls-1" d="M1223.92,321.72l-13.74-14.39v-16a7.81,7.81,0,1,0-3.26.15v17.22L1222.54,325h132.75l25.1,25H1385l-28.42-28.28Zm-19.94-38a4.24,4.24,0,1,1,4.23,4.26A4.26,4.26,0,0,1,1204,283.68Z"/><path class="cls-1" d="M225,252V128a7.83,7.83,0,1,0-2.45,0V251l-21.47,21.73V350h2.45V273.76Zm-5.46-131.82a4.23,4.23,0,1,1,4.23,4.26A4.26,4.26,0,0,1,219.55,120.22Z"/><path class="cls-1" d="M846.11,242.54V147.41a7.86,7.86,0,1,0-2.45,0v96.14l41.9,42.4v64H888V284.94Zm-5.51-102.9a4.23,4.23,0,1,1,4.23,4.27A4.26,4.26,0,0,1,840.6,139.64Z"/><path class="cls-1" d="M785.93,323.33V296.89a7.85,7.85,0,1,0-2.55,0v25.39l-6.78,6.82V350h2.54V330.15Zm-5.51-34.21a4.24,4.24,0,1,1,4.24,4.26A4.27,4.27,0,0,1,780.42,289.12Z"/><path class="cls-1" d="M1346.59,225.81l-59.25-59.76H1262l-6.78-6.83h-26.25a7.9,7.9,0,1,0,0,2.56h25.2l6.77,6.84h25.39l59.25,59.76h81.25L1440,241.7v-3.63l-12.16-12.26Zm-125.38-61a4.27,4.27,0,1,1,4.23-4.26A4.26,4.26,0,0,1,1221.21,164.76Z"/><path class="cls-1" d="M770,296.73V270.28a7.85,7.85,0,1,0-2.55,0v25.39l-6.78,6.82V350h2.54V303.55Zm-5.51-34.21a4.24,4.24,0,1,1,4.23,4.26A4.27,4.27,0,0,1,764.52,262.52Z"/><path class="cls-1" d="M331.48,295.67V270.28a7.84,7.84,0,1,0-2.55,0v26.45l6.78,6.82V350h2.54V302.49ZM326,262.52a4.24,4.24,0,1,1,4.24,4.26A4.26,4.26,0,0,1,326,262.52Z"/><path class="cls-1" d="M798.12,345.65V320.26a7.84,7.84,0,1,0-2.55,0v26.44l3.27,3.29h3.6ZM792.6,312.5a4.24,4.24,0,1,1,4.24,4.26A4.26,4.26,0,0,1,792.6,312.5Z"/><path class="cls-1" d="M812.48,251V207.2a7.83,7.83,0,1,0-2.45,0V252l21.47,21.73V350H834V272.74ZM807,199.42a4.23,4.23,0,1,1,4.23,4.26A4.26,4.26,0,0,1,807,199.42Z"/><path class="cls-1" d="M1307.95,73.82a7.9,7.9,0,0,0,0,15.79,7.67,7.67,0,0,0,4-1.14l65.94,64.41H1440v-2.47H1378.9l-65.07-63.53a7.87,7.87,0,0,0-5.89-13.06Zm0,12.15a4.26,4.26,0,1,1,4.23-4.26A4.25,4.25,0,0,1,1307.95,86Z"/><path class="cls-1" d="M777.76,242.54v-33a7.86,7.86,0,1,0-2.45,0v34L817.21,286v64h2.45V284.94Zm-5.51-40.77a4.23,4.23,0,1,1,4.23,4.27A4.26,4.26,0,0,1,772.26,201.77Z"/><path class="cls-1" d="M273.72,243.56V176.87a7.81,7.81,0,1,0-2.45,0v65.68l-41.89,42.4V350h2.45V286Zm-5.4-74.47a4.23,4.23,0,1,1,4.23,4.27A4.25,4.25,0,0,1,268.32,169.09Z"/><path class="cls-1" d="M72.14,185a12.28,12.28,0,0,0,0-24.55,12,12,0,0,0-6.35,1.82l-25.37-21H.82l-.82.84v9.65l3.8-3.89h34l23.31,19.62A12.37,12.37,0,0,0,60,172.74,12.22,12.22,0,0,0,72.14,185Zm0-17.29a5,5,0,1,1-5,5A5,5,0,0,1,72.14,167.73Z"/><path class="cls-1" d="M740.51,295.67V270.28a7.84,7.84,0,1,0-2.55,0v26.45l6.79,6.82V350h2.54V302.49ZM735,262.52a4.24,4.24,0,1,1,4.24,4.26A4.26,4.26,0,0,1,735,262.52Z"/><path class="cls-1" d="M973.91,251V128a7.83,7.83,0,1,0-2.45,0V252l21.47,21.73V350h2.45V272.74Zm-5.46-130.79a4.23,4.23,0,1,1,4.24,4.26A4.27,4.27,0,0,1,968.45,120.22Z"/><path class="cls-1" d="M1048.86,252V207.2a7.83,7.83,0,1,0-2.45,0V251l-21.48,21.73V350h2.45V273.76Zm-5.46-52.61a4.23,4.23,0,1,1,4.23,4.26A4.26,4.26,0,0,1,1043.4,199.42Z"/><path class="cls-1" d="M1022,248.53v-7.45a12.17,12.17,0,1,0-6.52,0v4.72l-9.57,9.68V350h6.52V258.21Zm-8.23-19.27a5,5,0,1,1,5,5A5,5,0,0,1,1013.78,229.26Z"/><polygon class="cls-1" points="0 350 0.61 350 6.02 344.56 6.02 291.6 0 285.53 0 350"/><path class="cls-1" d="M1076.64,350V286.54l35-39.52V191.62l-23-25.78h-11.45a12.25,12.25,0,1,0-.59,8h9l18.89,20.52v49.85l-48.35,54.41V350h7.31V301.43l6.67-7.53V350Zm-11.16-176a5,5,0,1,1,5-5A5,5,0,0,1,1065.48,174Z"/><path class="cls-1" d="M1083.57,243.56v-34a7.81,7.81,0,1,0-2.45,0v33l-41.89,42.4V350h2.45V286Zm-5.4-41.8a4.23,4.23,0,1,1,4.23,4.27A4.25,4.25,0,0,1,1078.17,201.77Z"/><path class="cls-1" d="M22.33,173.88a12.29,12.29,0,1,0-.59-8H10.3L0,177.38v11l13.38-14.53ZM33.49,164a5,5,0,1,1-5,5A5,5,0,0,1,33.49,164Z"/><path class="cls-1" d="M163,295.67V270.28a7.84,7.84,0,1,0-2.55,0v26.45l6.79,6.82V350h2.54V302.49Zm-5.51-33.15a4.24,4.24,0,1,1,4.24,4.26A4.26,4.26,0,0,1,157.45,262.52Z"/><path class="cls-1" d="M1400.63,273.44h-113l-8.16-8.24a7.79,7.79,0,1,0-5.88,2.73,7.74,7.74,0,0,0,3.91-1.09l9.08,9.16h113l37.25,37.13H1440v-2.55h-2.13Zm-127.05-9.13a4.27,4.27,0,1,1,4.23-4.26A4.26,4.26,0,0,1,1273.57,264.31Z"/><path class="cls-1" d="M1332,52.81a7.79,7.79,0,1,0-5.89,2.73,7.67,7.67,0,0,0,4-1.14L1396,118.82h44v-2.47h-43Zm-5.89-.9a4.26,4.26,0,1,1,4.23-4.26A4.25,4.25,0,0,1,1326.06,51.91Z"/><path class="cls-1" d="M938.55,296.73V270.28a7.85,7.85,0,1,0-2.55,0v25.39l-6.78,6.82V350h2.54V303.55ZM933,262.52a4.24,4.24,0,1,1,4.23,4.26A4.26,4.26,0,0,1,933,262.52Z"/><path class="cls-1" d="M954.45,323.33V296.89a7.84,7.84,0,1,0-2.55,0v25.39l-6.78,6.82V350h2.54V330.15Zm-5.51-34.21a4.24,4.24,0,1,1,4.23,4.26A4.26,4.26,0,0,1,948.94,289.12Z"/><path class="cls-1" d="M1387.56,288.69H1269.32a12.18,12.18,0,0,0-10.2-8.15V258.93l-21.21-20.84V219.68l6.85,6.59h41.76l30.11,30.36h98.6l24.77,25V271.36l-21.78-22h-98.6l-41.43-41.78a12.16,12.16,0,1,0-5.4,4.82l7.19,7.25h-32.61L1233,205.87v-7.77a12.19,12.19,0,1,0-6.53,0v10.61l4.89,4.71v27.47l21.21,20.84v20a12.28,12.28,0,0,0,5.25,23.33,12.16,12.16,0,0,0,11.73-9.07h115l44,44.4H1440v-7.25h-8.43ZM1267.8,206.25a5,5,0,1,1,5-5A5,5,0,0,1,1267.8,206.25Zm-38-14.94a5,5,0,1,1,5-5A5,5,0,0,1,1229.76,191.3Zm28.09,106.46a5,5,0,1,1,5-5A5,5,0,0,1,1257.85,297.76Z"/><path class="cls-1" d="M147.07,322.27V296.89a7.84,7.84,0,1,0-2.55,0v26.44l6.78,6.82V350h2.54V329.09Zm-5.51-33.15a4.24,4.24,0,1,1,4.24,4.26A4.27,4.27,0,0,1,141.56,289.12Z"/><path class="cls-1" d="M943.6,242.54V176.86a7.86,7.86,0,1,0-2.45,0v66.69L983,286v64h2.45V284.94Zm-5.51-73.45a4.23,4.23,0,1,1,4.23,4.27A4.26,4.26,0,0,1,938.09,169.09Z"/><path class="cls-1" d="M908.93,245.8v-4.72a12.17,12.17,0,1,0-6.53,0v7.45l9.57,9.69V350h6.52V255.48Zm-8.24-16.54a5,5,0,1,1,5,5A5,5,0,0,1,900.69,229.26Z"/><path class="cls-1" d="M196.57,248.53v-7.45a12.16,12.16,0,1,0-6.53,0v4.72l-9.56,9.68V350H187V258.21Zm-8.23-19.27a5,5,0,1,1,5,5A5,5,0,0,1,188.34,229.26Z"/><path class="cls-1" d="M966.63,345.65V320.26a7.84,7.84,0,1,0-2.54,0v26.44l3.27,3.29H971Zm-5.51-33.15a4.23,4.23,0,1,1,4.24,4.26A4.26,4.26,0,0,1,961.12,312.5Z"/><path class="cls-1" d="M1347.82,204.27l-60.31-62.72c2.33-3.24,3.37-6.12,1.37-9.6a7.8,7.8,0,0,0-10.7-2.89,7.92,7.92,0,0,0-2.87,10.78,7.8,7.8,0,0,0,9.32,3.53l62.13,63.48h93l.22.23v-2.79Zm-63.6-64.68a4.23,4.23,0,0,1-5.79-1.57,4.29,4.29,0,0,1,1.55-5.82,4.23,4.23,0,0,1,5.78,1.56A4.29,4.29,0,0,1,1284.22,139.58Z"/><path class="cls-1" d="M478.4,252V128a7.83,7.83,0,1,0-2.45,0V251l-21.47,21.73V350h2.45V273.76Zm-5.46-131.82a4.23,4.23,0,1,1,4.23,4.26A4.26,4.26,0,0,1,472.94,120.22Z"/><path class="cls-1" d="M508.7,243.56V176.87a7.81,7.81,0,1,0-2.45,0v65.68l-41.89,42.4V350h2.45V286Zm-5.4-74.47a4.23,4.23,0,1,1,4.23,4.27A4.26,4.26,0,0,1,503.3,169.09Z"/><path class="cls-1" d="M0,125.1l24.42-24.56a7.75,7.75,0,0,0,4.33,1.32,7.95,7.95,0,1,0-6.17-3.08L0,121.48Zm28.75-35.4A4.27,4.27,0,1,1,24.52,94,4.26,4.26,0,0,1,28.75,89.69Z"/><path class="cls-1" d="M434.37,245.8V164.64a12.17,12.17,0,1,0-6.52,0v83.88l9.57,9.69V350h6.52V255.48Zm-8.23-93a5,5,0,1,1,5,5A5,5,0,0,1,426.13,152.83Z"/><path class="cls-1" d="M1099.48,341.56V294.62L1133.74,260v-82.4l-35.59-36.34h-39.6l-25.37,21a12.05,12.05,0,0,0-6.35-1.82A12.28,12.28,0,1,0,1039,172.74a12.37,12.37,0,0,0-1.18-5.23l23.31-19.62h34l32,32.76V257L1093,291.6v53l5.41,5.44h9.57Zm-72.65-163.8a5,5,0,1,1,5-5A5,5,0,0,1,1026.83,177.76Z"/><path class="cls-1" d="M1155.64,346.92V243.4l6.38-6.46a7.76,7.76,0,0,0,4.14,1.22,7.89,7.89,0,1,0-6.5-3.49l-7.28,7.36V348.28l1.69,1.72h4.6ZM1166.16,226a4.27,4.27,0,1,1-4.23,4.27A4.26,4.26,0,0,1,1166.16,226Z"/><path class="cls-1" d="M498,322.27V296.89a7.84,7.84,0,1,0-2.55,0v26.44l6.78,6.82V350h2.54V329.09Zm-5.51-33.15a4.24,4.24,0,1,1,4.24,4.26A4.26,4.26,0,0,1,492.44,289.12Z"/><path class="cls-1" d="M315.59,322.27V296.89a7.84,7.84,0,1,0-2.55,0v26.44l6.78,6.82V350h2.54V329.09Zm-5.51-33.15a4.24,4.24,0,1,1,4.24,4.26A4.26,4.26,0,0,1,310.08,289.12Z"/><path class="cls-1" d="M303.4,320.26a7.84,7.84,0,1,0-2.55,0v25.39L296.53,350h3.6l3.27-3.29Zm-5.51-7.76a4.24,4.24,0,1,1,4.23,4.26A4.26,4.26,0,0,1,297.89,312.5Z"/><path class="cls-1" d="M485.77,320.26a7.84,7.84,0,1,0-2.54,0v25.39L478.9,350h3.6l3.27-3.29Zm-5.51-7.76a4.24,4.24,0,1,1,4.23,4.26A4.26,4.26,0,0,1,480.26,312.5Z"/><path class="cls-1" d="M52.56,251V207.2a7.83,7.83,0,1,0-2.45,0V252l21.47,21.73V350H74V272.74Zm-5.45-51.58a4.23,4.23,0,1,1,4.23,4.26A4.26,4.26,0,0,1,47.11,199.42Z"/><path class="cls-1" d="M403.45,251V187a7.83,7.83,0,1,0-2.45,0V252l21.47,21.73V350h2.45V272.74ZM398,179.19a4.23,4.23,0,1,1,4.23,4.26A4.26,4.26,0,0,1,398,179.19Z"/><path class="cls-1" d="M513.85,295.67V270.28a7.84,7.84,0,1,0-2.55,0v26.45l6.79,6.82V350h2.54V302.49Zm-5.51-33.15a4.24,4.24,0,1,1,4.24,4.26A4.26,4.26,0,0,1,508.34,262.52Z"/><path class="cls-1" d="M83.48,245.8v-4.72a12.17,12.17,0,1,0-6.52,0v7.45l9.57,9.69V350h6.52V255.48Zm-8.23-16.54a5,5,0,1,1,5,5A5,5,0,0,1,75.25,229.26Z"/><path class="cls-1" d="M361,296.73V270.28a7.85,7.85,0,1,0-2.55,0v25.39l-6.78,6.82V350h2.54V303.55Zm-5.51-34.21a4.24,4.24,0,1,1,4.23,4.26A4.26,4.26,0,0,1,355.49,262.52Z"/><path class="cls-1" d="M376.9,323.33V296.89a7.84,7.84,0,1,0-2.55,0v25.39l-6.78,6.82V350h2.54V330.15Zm-5.51-34.21a4.24,4.24,0,1,1,4.23,4.26A4.26,4.26,0,0,1,371.39,289.12Z"/><polygon class="cls-1" points="0 250.46 0 261.36 22.34 286.55 22.34 350 28.86 350 28.86 293.9 35.53 301.43 35.53 350 42.84 350 42.84 298.66 0 250.46"/><path class="cls-1" d="M368.73,242.54v-33a7.86,7.86,0,1,0-2.45,0v34L408.18,286v64h2.45V284.94Zm-5.51-40.77a4.23,4.23,0,1,1,4.23,4.27A4.26,4.26,0,0,1,363.22,201.77Z"/><path class="cls-1" d="M389.08,345.65V320.26a7.84,7.84,0,1,0-2.54,0v26.44l3.27,3.29h3.6Zm-5.51-33.15a4.23,4.23,0,1,1,4.24,4.26A4.26,4.26,0,0,1,383.58,312.5Z"/><path class="cls-1" d="M17.85,242.54v-33a7.86,7.86,0,1,0-2.45,0v34L57.29,286v64h2.45V284.94Zm-5.51-40.77A4.23,4.23,0,1,1,16.57,206,4.26,4.26,0,0,1,12.34,201.77Z"/><path class="cls-1" d="M1311,333.23h-105.8l-12.38-12.49v-42l24.33-24.55V213.59l-8.47-8.53h-36.5l-19.52-19.69V158.11l-21.5-21.69h-17.37l-37.44-37.65a7.79,7.79,0,1,0-6.17,3.08,7.75,7.75,0,0,0,4.33-1.32L1112.77,139h17.38l20,20.19v27.26l21,21.19h36.5l7,7v38.43l-24.34,24.54V321.8l13.86,14H1310L1324.08,350h3.59Zm-240.82-235a4.27,4.27,0,1,1,4.23-4.26A4.26,4.26,0,0,1,1070.22,98.23Z"/><path class="cls-1" d="M127.51,252V128a7.83,7.83,0,1,0-2.45,0V251l-21.47,21.73V350H106V273.76Zm-5.46-131.82a4.23,4.23,0,1,1,4.23,4.26A4.26,4.26,0,0,1,122.06,120.22Z"/><path class="cls-1" d="M1204.37,46.65a7.9,7.9,0,0,0,0,15.8,7.68,7.68,0,0,0,4-1.16l14.05,14.18h54.11l91.84,90.92H1440v-2.56h-70.55l-91.84-90.92h-54.1l-13.18-13.3a7.87,7.87,0,0,0-6-13Zm0,12.16a4.27,4.27,0,1,1,4.23-4.26A4.26,4.26,0,0,1,1204.37,58.82Z"/><path class="cls-1" d="M732.69,243.56v-34a7.81,7.81,0,1,0-2.45,0v33l-41.89,42.4V350h2.45V286Zm-5.4-41.8a4.23,4.23,0,1,1,4.23,4.27A4.25,4.25,0,0,1,727.29,201.77Z"/><path class="cls-1" d="M288.94,252V207.2a7.84,7.84,0,1,0-2.45,0V251L265,272.74V350h2.45V273.76Zm-5.46-52.61a4.23,4.23,0,1,1,4.23,4.26A4.26,4.26,0,0,1,283.48,199.42Z"/><path class="cls-1" d="M671.13,248.53V164.64a12.17,12.17,0,1,0-6.52,0V245.8L655,255.48V350h6.52V258.21Zm-8.23-95.7a5,5,0,1,1,5,5A5,5,0,0,1,662.9,152.83Z"/><path class="cls-1" d="M724.62,322.27V296.89a7.84,7.84,0,1,0-2.55,0v26.44l6.78,6.82V350h2.54V329.09Zm-5.51-33.15a4.24,4.24,0,1,1,4.24,4.26A4.27,4.27,0,0,1,719.11,289.12Z"/><path class="cls-1" d="M1222.13,0a7.9,7.9,0,0,0,0,15.8,7.68,7.68,0,0,0,4-1.16l14.06,14.18h38.1l110.28,108.71H1440V135h-50.36L1279.36,26.26h-38.09L1228.09,13a7.87,7.87,0,0,0-6-13Zm0,12.16a4.27,4.27,0,1,1,4.23-4.26A4.25,4.25,0,0,1,1222.13,12.16Z"/><path class="cls-1" d="M157.82,243.56V176.87a7.81,7.81,0,1,0-2.45,0v65.68l-41.89,42.4V350h2.45V286Zm-5.4-74.47a4.23,4.23,0,1,1,4.23,4.27A4.25,4.25,0,0,1,152.42,169.09Z"/><path class="cls-1" d="M712.43,320.26a7.84,7.84,0,1,0-2.54,0v25.39L705.56,350h3.6l3.27-3.29Zm-5.51-7.76a4.23,4.23,0,1,1,4.23,4.26A4.26,4.26,0,0,1,706.92,312.5Z"/><path class="cls-1" d="M698,252V187a7.83,7.83,0,1,0-2.45,0v64L674,272.74V350h2.45V273.76Zm-5.46-72.85a4.23,4.23,0,1,1,4.23,4.26A4.26,4.26,0,0,1,692.52,179.19Z"/><path class="cls-1" d="M1167.06,286.21l21.21-22.26v-8.74a7.83,7.83,0,1,0-3.27,0v7.41l-21.21,22.26V346l3.72,4H1172l-4.93-5.31Zm15.35-38.72a4.23,4.23,0,1,1,4.23,4.27A4.26,4.26,0,0,1,1182.41,247.49Z"/><path class="cls-1" d="M323.65,243.56v-34a7.81,7.81,0,1,0-2.45,0v33l-41.89,42.4V350h2.45V286Zm-5.4-41.8a4.23,4.23,0,1,1,4.23,4.27A4.26,4.26,0,0,1,318.25,201.77Z"/><path class="cls-1" d="M603.56,323.33V296.89a7.84,7.84,0,1,0-2.55,0v25.39l-6.78,6.82V350h2.54V330.15Zm-5.51-34.21a4.24,4.24,0,1,1,4.23,4.26A4.26,4.26,0,0,1,598.05,289.12Z"/><path class="cls-1" d="M587.67,296.73V270.28a7.85,7.85,0,1,0-2.55,0v25.39l-6.78,6.82V350h2.54V303.55Zm-5.51-34.21a4.24,4.24,0,1,1,4.23,4.26A4.26,4.26,0,0,1,582.16,262.52Z"/><path class="cls-1" d="M592.72,242.54V176.86a7.86,7.86,0,1,0-2.45,0v66.69L632.16,286v64h2.45V284.94Zm-5.51-73.45a4.23,4.23,0,1,1,4.23,4.27A4.26,4.26,0,0,1,587.2,169.09Z"/><path class="cls-1" d="M615.75,345.65V320.26a7.84,7.84,0,1,0-2.54,0v26.44l3.27,3.29h3.6Zm-5.51-33.15a4.24,4.24,0,1,1,4.24,4.26A4.26,4.26,0,0,1,610.24,312.5Z"/><path class="cls-1" d="M1151.33,60.1a7.9,7.9,0,0,0,0,15.8,7.71,7.71,0,0,0,5-1.88l11.38,11.48h93.59l94.58,95.4H1440v-2.56h-83l-94.58-95.4h-93.59L1158,72.08a7.88,7.88,0,0,0-6.67-12Zm0,12.16a4.27,4.27,0,1,1,4.23-4.27A4.26,4.26,0,0,1,1151.33,72.27Z"/><path class="cls-1" d="M623,251V128a7.83,7.83,0,1,0-2.45,0V252L642,273.76V350h2.45V272.74Zm-5.46-130.79a4.23,4.23,0,1,1,4.23,4.26A4.27,4.27,0,0,1,617.57,120.22Z"/><path class="cls-1" d="M250.88,320.26a7.84,7.84,0,1,0-2.54,0v25.39L244,350h3.6l3.27-3.29Zm-5.51-7.76a4.23,4.23,0,1,1,4.23,4.26A4.26,4.26,0,0,1,245.37,312.5Z"/></g></g></svg>