<svg xmlns="http://www.w3.org/2000/svg" width="18" height="18" viewBox="0 0 18 18">
  <defs>
    <style>
      .cls-1 {
        fill: #fff;
        fill-rule: evenodd;
      }
    </style>
  </defs>
  <path id="search-ffffff" class="cls-1" d="M1396.72,38.361a7.36,7.36,0,1,0-12.56,5.2,7.083,7.083,0,0,0,5.2,2.16,7.29,7.29,0,0,0,4.18-1.3L1398.11,49l1.89-1.89-4.57-4.59a7.164,7.164,0,0,0,1.29-4.158h0Zm-3.88,3.456a4.7,4.7,0,0,1-3.48,1.44,4.863,4.863,0,0,1-3.47-1.44,4.6,4.6,0,0,1-1.44-3.456,4.813,4.813,0,0,1,1.44-3.474,4.913,4.913,0,0,1,6.95,0,4.8,4.8,0,0,1,1.42,3.474A4.618,4.618,0,0,1,1392.84,41.817Z" transform="translate(-1382 -31)"/>
</svg>
