<svg xmlns="http://www.w3.org/2000/svg" width="15" height="15" viewBox="0 0 15 15">
  <defs>
    <style>
      .cls-1 {
        fill: #888;
        fill-rule: evenodd;
      }
    </style>
  </defs>
  <path id="share-weboi-888888" class="cls-1" d="M1385.2,3617.88V3628h3.22v-10.12h-3.22Zm2.92-4.38a1.711,1.711,0,0,0-1.29-.49,1.789,1.789,0,0,0-1.31.49,1.8,1.8,0,0,0-.02,2.49,1.749,1.749,0,0,0,1.3.49h0.01a1.773,1.773,0,0,0,1.31-.49,1.651,1.651,0,0,0,.51-1.24A1.752,1.752,0,0,0,1388.12,3613.5Zm10.87,5.29a3.4,3.4,0,0,0-2.68-1.15,4.959,4.959,0,0,0-1.12.16,2.251,2.251,0,0,0-.86.44,6.9,6.9,0,0,0-.54.53,3.789,3.789,0,0,0-.4.57h0.02v-1.46h-3.22l0.02,0.49v3.02c0,1.68-.01,3.89-0.02,6.61h3.22v-5.66a2.653,2.653,0,0,1,.1-0.82,2.285,2.285,0,0,1,.63-0.88,1.521,1.521,0,0,1,1.02-.35,1.375,1.375,0,0,1,1.24.61,2.982,2.982,0,0,1,.4,1.68V3628h3.2v-5.8A5.049,5.049,0,0,0,1398.99,3618.79Z" transform="translate(-1385 -3613)"/>
</svg>
