<svg xmlns="http://www.w3.org/2000/svg" width="20" height="16" viewBox="0 0 20 16">
  <defs>
    <style>
      .cls-1 {
        fill: #888;
        fill-rule: evenodd;
      }
    </style>
  </defs>
  <path id="share-linkedin-888888" class="cls-1" d="M1356.84,3624.8a0.948,0.948,0,0,1-.84-0.02,0.9,0.9,0,0,1-.48-0.57,0.877,0.877,0,0,1,.16-0.75,1.285,1.285,0,0,1,.66-0.49,1.04,1.04,0,0,1,.83.01,0.8,0.8,0,0,1,.49.54,0.925,0.925,0,0,1-.12.75A1.358,1.358,0,0,1,1356.84,3624.8Zm1.5-1.66a0.5,0.5,0,0,1-.32.02,0.324,0.324,0,0,1-.16-0.51,0.378,0.378,0,0,1,.24-0.2,0.505,0.505,0,0,1,.32-0.01,0.323,0.323,0,0,1,.2.21,0.3,0.3,0,0,1-.04.3A0.422,0.422,0,0,1,1358.34,3623.14Zm2.16-1.12a2.657,2.657,0,0,0-1.78-1.31,3.447,3.447,0,0,0-2.34.2,3.338,3.338,0,0,0-1.68,1.54,2.335,2.335,0,0,0-.08,2.06,2.488,2.488,0,0,0,1.66,1.4,3.554,3.554,0,0,0,2.48-.14,3.1,3.1,0,0,0,1.76-1.64A2.22,2.22,0,0,0,1360.5,3622.02Zm2.02,3.26a7.634,7.634,0,0,1-4.12,1.56,8.124,8.124,0,0,1-3.06-.24,5.615,5.615,0,0,1-2.32-1.2,2.838,2.838,0,0,1-1-1.86,3.282,3.282,0,0,1,1.48-2.93,7.729,7.729,0,0,1,4.12-1.56,8.4,8.4,0,0,1,3.06.24,5.516,5.516,0,0,1,2.34,1.2,2.853,2.853,0,0,1,.98,1.86A3.35,3.35,0,0,1,1362.52,3625.28Zm4.54-4.15a2.566,2.566,0,0,0-.88-0.91,5.591,5.591,0,0,0-1.16-.52,0.311,0.311,0,0,1-.18-0.06,0.68,0.68,0,0,0-.14-0.09,0.1,0.1,0,0,1-.06-0.14,0.639,0.639,0,0,0,.06-0.22,2.008,2.008,0,0,0,0-1.95,1.977,1.977,0,0,0-1.7-.68,7.384,7.384,0,0,0-2.76.65l-0.22.06a0.217,0.217,0,0,1-.16,0,0.189,0.189,0,0,1-.1-0.08,0.246,0.246,0,0,1,0-.21,2.213,2.213,0,0,0-.22-2.32c-0.53-.52-1.45-0.54-2.74-0.06a11.116,11.116,0,0,0-3.82,2.59,12.288,12.288,0,0,0-2.2,2.85,5.713,5.713,0,0,0-.78,2.71,3.186,3.186,0,0,0,.72,2.19,7.426,7.426,0,0,0,1.92,1.66,8.181,8.181,0,0,0,2.68,1.03,18.654,18.654,0,0,0,3.08.38,10.119,10.119,0,0,0,3.02-.34,13.073,13.073,0,0,0,2.52-.93,8.094,8.094,0,0,0,1.88-1.28,5.54,5.54,0,0,0,1.22-1.53,3.229,3.229,0,0,0,.4-1.52A2.517,2.517,0,0,0,1367.06,3621.13Zm-1.56-6.33a2.765,2.765,0,0,0-1.34-.06,0.691,0.691,0,0,0-.4.28,0.567,0.567,0,0,0-.1.49,0.612,0.612,0,0,0,.28.4,0.648,0.648,0,0,0,.5.1,1.171,1.171,0,0,1,1.2.37,1.186,1.186,0,0,1,.26,1.23,0.533,0.533,0,0,0,.04.49,0.783,0.783,0,0,0,.38.34,0.725,0.725,0,0,0,.5-0.06,0.7,0.7,0,0,0,.34-0.36,2.646,2.646,0,0,0-.54-2.51A2.42,2.42,0,0,0,1365.5,3614.8Zm0.82-2.57a5.243,5.243,0,0,0-2.72-.12,0.675,0.675,0,0,0-.5.32,0.685,0.685,0,0,0-.1.57,0.827,0.827,0,0,0,.34.48,0.783,0.783,0,0,0,.58.12,3.685,3.685,0,0,1,1.92.07,3.731,3.731,0,0,1,1.66,1.06,3.549,3.549,0,0,1,.9,1.75,3.591,3.591,0,0,1-.12,1.9,0.79,0.79,0,0,0,.06.57,0.83,0.83,0,0,0,.44.38,0.659,0.659,0,0,0,.58-0.04,0.82,0.82,0,0,0,.38-0.46,4.925,4.925,0,0,0,.16-2.65,5.168,5.168,0,0,0-1.26-2.47A5.067,5.067,0,0,0,1366.32,3612.23Z" transform="translate(-1350 -3612)"/>
</svg>
