<svg xmlns="http://www.w3.org/2000/svg" width="14" height="14" viewBox="0 0 14 14">
  <defs>
    <style>
      .cls-1 {
        fill: #444;
        fill-rule: evenodd;
      }
    </style>
  </defs>
  <path id="check-box" class="cls-1" d="M655,1398.99a0.987,0.987,0,0,0-.992,1v10a1,1,0,0,0,.288.71,0.929,0.929,0,0,0,.7.29h10a0.957,0.957,0,0,0,.712-0.29,0.984,0.984,0,0,0,.3-0.71v-10a0.952,0.952,0,0,0-.3-0.71,1,1,0,0,0-.712-0.29H655Zm10-1a1.929,1.929,0,0,1,1,.27,2.014,2.014,0,0,1,.728.73,1.89,1.89,0,0,1,.272,1v10a1.964,1.964,0,0,1-.152.76,2,2,0,0,1-.432.66,1.931,1.931,0,0,1-.648.44,2.013,2.013,0,0,1-.768.15H655a2.013,2.013,0,0,1-.768-0.15,1.921,1.921,0,0,1-.648-0.44,2,2,0,0,1-.432-0.66,1.946,1.946,0,0,1-.152-0.76v-10a1.881,1.881,0,0,1,.272-1,2.014,2.014,0,0,1,.728-0.73,1.926,1.926,0,0,1,1-.27h10Z" transform="translate(-653 -1398)"/>
</svg>
