<svg xmlns="http://www.w3.org/2000/svg" viewBox="0 0 108.57 40"><defs><style>.cls-1{fill:#fff;}</style></defs><title>资源 2</title><g id="图层_2" data-name="图层 2"><g id="图层_1-2" data-name="图层 1"><path class="cls-1" d="M40.51,17.88a5.82,5.82,0,0,0-2.78.75,0,0,0,0,1,0,0V14.75A1.74,1.74,0,0,0,36.19,13a1.7,1.7,0,0,0-1.9,1.68V32.13a1.7,1.7,0,0,0,3.39,0V23.66a2.59,2.59,0,0,1,2.83-2.42c1.9,0,2.28.95,2.28,2.47v8.41a1.7,1.7,0,0,0,3.39,0V23.72c0-3.66-2.12-5.84-5.67-5.84"/><path class="cls-1" d="M51.73,33.82h0a1.7,1.7,0,0,0,1.7-1.7V19.8a1.7,1.7,0,0,0-3.39,0V32.13a1.7,1.7,0,0,0,1.7,1.7"/><path class="cls-1" d="M51.95,12.8h-.46a1.7,1.7,0,0,0-1.7,1.7v.67a1.93,1.93,0,1,0,3.86,0v-.67a1.7,1.7,0,0,0-1.7-1.7"/><path class="cls-1" d="M78.92,17.88a5.82,5.82,0,0,0-2.83.78V14.75A1.74,1.74,0,0,0,74.44,13a1.7,1.7,0,0,0-1.75,1.69V32.13a1.7,1.7,0,0,0,3.39,0V23.66a2.59,2.59,0,0,1,2.83-2.42c1.9,0,2.28.95,2.28,2.47v8.41a1.7,1.7,0,0,0,3.39,0V23.72c0-3.66-2.12-5.84-5.67-5.84"/><path class="cls-1" d="M69,23.39c0-.07,0-.15,0-.22v5.58c0-.07,0-.15,0-.22Z"/><path class="cls-1" d="M65.56,18.26h0a5.52,5.52,0,0,0-2.12-.42h-.83a5.51,5.51,0,0,0-5.5,5.22c0,.07,0,.13,0,.2h0s0,.05,0,.08v0c0,.12,0,.23,0,.35v4.51c0,.24,0,.47,0,.69,0-.11,0-.23,0-.34v0c0,.12,0,.23,0,.34h0a5.44,5.44,0,0,0,.48,1.93h0A5.09,5.09,0,0,0,60,33.39a5.45,5.45,0,0,1-1.38-1.07A5.45,5.45,0,0,0,60,33.39h0l.22.11.4.16-.4-.16a5.44,5.44,0,0,0,2,.53h0a8,8,0,0,0,.9.06,5.11,5.11,0,0,0,.68,0h0a5.51,5.51,0,0,0,1.82-.4v.66c0,1.93-.92,2.31-2.5,2.31A2.08,2.08,0,0,1,60.74,35h0a.67.67,0,0,0-.66-.54H58a.67.67,0,0,0-.67.75A5.39,5.39,0,0,0,63.06,40C66.88,40,69,38,69,34.3V23.17A5.54,5.54,0,0,0,65.56,18.26Zm0,10a2.24,2.24,0,0,1-2.5,2.47c-1.72,0-2.56-.81-2.56-2.47V23.72a2.25,2.25,0,0,1,2.56-2.47c1.71,0,2.5.79,2.5,2.47Z"/><path class="cls-1" d="M90,16.19h3.55a7.92,7.92,0,0,1,3,.68,1.61,1.61,0,1,0,1.31-2.94,11.12,11.12,0,0,0-4.23-1H90a1.61,1.61,0,0,0,0,3.22Z"/><path class="cls-1" d="M93.27,18.28H89.8l-.16,0h0l-.13,0h0l-.12,0h0l-.11.05,0,0-.1.06,0,0-.1.07,0,0-.09.08,0,0-.08.09,0,0-.07.09,0,0-.06.09,0,0,0,.09,0,.06,0,.09,0,.06,0,.09v.16s0,0,0,.07,0,.06,0,.09l0,8.42a5.5,5.5,0,0,0,5.49,5.49h3.35a1.61,1.61,0,0,0,0-3.22H93.81a2.28,2.28,0,0,1-2.28-2.27l0-6.81h1.71a2.28,2.28,0,0,1,2.28,2.28v1.89a1.61,1.61,0,1,0,3.22,0V23.77A5.5,5.5,0,0,0,93.27,18.28Z"/><path class="cls-1" d="M103.08,33.79H102a1.61,1.61,0,1,1,0-3.22h1.07a2.28,2.28,0,0,0,2.28-2.28V14.39a1.61,1.61,0,1,1,3.22,0V28.3A5.5,5.5,0,0,1,103.08,33.79Z"/><path class="cls-1" d="M102,28.24a1.61,1.61,0,0,1-1.61-1.61V19.88a1.61,1.61,0,1,1,3.22,0v6.75A1.61,1.61,0,0,1,102,28.24Z"/><path class="cls-1" d="M17.55,12.59a1.71,1.71,0,0,0,1.71-1.71v-3a1.71,1.71,0,1,0-3.42,0v3a1.71,1.71,0,0,0,1.71,1.71"/><path class="cls-1" d="M17.55,12.59a1.71,1.71,0,0,0,1.71-1.71v-3a1.71,1.71,0,1,0-3.42,0v3a1.71,1.71,0,0,0,1.71,1.71"/><path class="cls-1" d="M23.36,7.09A2.34,2.34,0,1,0,21,4.75a2.34,2.34,0,0,0,2.34,2.34"/><path class="cls-1" d="M23.36,7.09A2.34,2.34,0,1,0,21,4.75a2.34,2.34,0,0,0,2.34,2.34"/><path class="cls-1" d="M2,10.42A1.94,1.94,0,1,0,0,8.48,1.94,1.94,0,0,0,2,10.42"/><path class="cls-1" d="M2,10.42A1.94,1.94,0,1,0,0,8.48,1.94,1.94,0,0,0,2,10.42"/><path class="cls-1" d="M11,5A2.48,2.48,0,1,0,8.53,2.48,2.48,2.48,0,0,0,11,5"/><path class="cls-1" d="M11,5A2.48,2.48,0,1,0,8.53,2.48,2.48,2.48,0,0,0,11,5"/><path class="cls-1" d="M25.71,10.24h0A2.34,2.34,0,0,0,21,10h0a4,4,0,0,1-.72,2.37l-.13.23a3,3,0,0,1-2.55,1.4,3,3,0,0,1-3-3h0c0-.09,0-.18,0-.28A3.76,3.76,0,0,0,7.38,9.4V4.75a1.22,1.22,0,0,0-2.45,0v8a12.82,12.82,0,0,0-1,.87A2,2,0,0,0,0,14.18H0v9H0A12.85,12.85,0,0,0,6.17,33.89V17.73a2.72,2.72,0,0,1,.51-1.8,1.79,1.79,0,0,1,1.44-.6,1.85,1.85,0,0,1,1.47.61,2.67,2.67,0,0,1,.53,1.8V23.6a8.45,8.45,0,0,1,1.47-1.38,5.31,5.31,0,0,1,1.59-.76,6.66,6.66,0,0,1,1.87-.25,5.49,5.49,0,0,1,2.67.64,5,5,0,0,1,2.4,3.44,12.49,12.49,0,0,1,.15,2v6.1a12.84,12.84,0,0,0,5.44-10.5c0-.15,0-.3,0-.46h0Z"/><path class="cls-1" d="M25.71,10.24h0A2.34,2.34,0,0,0,21,10h0a4,4,0,0,1-.72,2.37l-.13.23a3,3,0,0,1-2.55,1.4,3,3,0,0,1-3-3h0c0-.09,0-.18,0-.28A3.76,3.76,0,0,0,7.38,9.4V4.75a1.22,1.22,0,0,0-2.45,0v8a12.82,12.82,0,0,0-1,.87A2,2,0,0,0,0,14.18H0v9H0A12.85,12.85,0,0,0,6.17,33.89V17.73a2.72,2.72,0,0,1,.51-1.8,1.79,1.79,0,0,1,1.44-.6,1.85,1.85,0,0,1,1.47.61,2.67,2.67,0,0,1,.53,1.8V23.6a8.45,8.45,0,0,1,1.47-1.38,5.31,5.31,0,0,1,1.59-.76,6.66,6.66,0,0,1,1.87-.25,5.49,5.49,0,0,1,2.67.64,5,5,0,0,1,2.4,3.44,12.49,12.49,0,0,1,.15,2v6.1a12.84,12.84,0,0,0,5.44-10.5c0-.15,0-.3,0-.46h0Z"/><path class="cls-1" d="M16.33,28.21a6.12,6.12,0,0,0-.57-2.92,2.23,2.23,0,0,0-2.14-1,3.22,3.22,0,0,0-1.91.6,3.62,3.62,0,0,0-1.27,1.64,10.53,10.53,0,0,0-.32,3.15v5.23a4.29,4.29,0,0,1,0,.58,12.85,12.85,0,0,0,6.26-.18c0-.13,0-.26,0-.39Z"/><path class="cls-1" d="M16.33,28.21a6.12,6.12,0,0,0-.57-2.92,2.23,2.23,0,0,0-2.14-1,3.22,3.22,0,0,0-1.91.6,3.62,3.62,0,0,0-1.27,1.64,10.53,10.53,0,0,0-.32,3.15v5.23a4.29,4.29,0,0,1,0,.58,12.85,12.85,0,0,0,6.26-.18c0-.13,0-.26,0-.39Z"/><path class="cls-1" d="M17.55,12.59a1.71,1.71,0,0,0,1.71-1.71v-3a1.71,1.71,0,1,0-3.42,0v3a1.71,1.71,0,0,0,1.71,1.71"/><path class="cls-1" d="M17.55,12.59a1.71,1.71,0,0,0,1.71-1.71v-3a1.71,1.71,0,1,0-3.42,0v3a1.71,1.71,0,0,0,1.71,1.71"/><path class="cls-1" d="M17.55,12.59a1.71,1.71,0,0,0,1.71-1.71v-3a1.71,1.71,0,1,0-3.42,0v3a1.71,1.71,0,0,0,1.71,1.71"/><path class="cls-1" d="M23.36,7.09A2.34,2.34,0,1,0,21,4.75a2.34,2.34,0,0,0,2.34,2.34"/><path class="cls-1" d="M23.36,7.09A2.34,2.34,0,1,0,21,4.75a2.34,2.34,0,0,0,2.34,2.34"/><path class="cls-1" d="M23.36,7.09A2.34,2.34,0,1,0,21,4.75a2.34,2.34,0,0,0,2.34,2.34"/><path class="cls-1" d="M2,10.42A1.94,1.94,0,1,0,0,8.48,1.94,1.94,0,0,0,2,10.42"/><path class="cls-1" d="M2,10.42A1.94,1.94,0,1,0,0,8.48,1.94,1.94,0,0,0,2,10.42"/><path class="cls-1" d="M2,10.42A1.94,1.94,0,1,0,0,8.48,1.94,1.94,0,0,0,2,10.42"/><path class="cls-1" d="M11,5A2.48,2.48,0,1,0,8.53,2.48,2.48,2.48,0,0,0,11,5"/><path class="cls-1" d="M11,5A2.48,2.48,0,1,0,8.53,2.48,2.48,2.48,0,0,0,11,5"/><path class="cls-1" d="M11,5A2.48,2.48,0,1,0,8.53,2.48,2.48,2.48,0,0,0,11,5"/><path class="cls-1" d="M25.71,10.24h0A2.34,2.34,0,0,0,21,10h0a4,4,0,0,1-.72,2.37l-.13.23a3,3,0,0,1-2.55,1.4,3,3,0,0,1-3-3h0c0-.09,0-.18,0-.28A3.76,3.76,0,0,0,7.38,9.4V4.75a1.22,1.22,0,0,0-2.45,0v8a12.82,12.82,0,0,0-1,.87A2,2,0,0,0,0,14.18H0v9H0A12.85,12.85,0,0,0,6.17,33.89V17.73a2.72,2.72,0,0,1,.51-1.8,1.79,1.79,0,0,1,1.44-.6,1.85,1.85,0,0,1,1.47.61,2.67,2.67,0,0,1,.53,1.8V23.6a8.45,8.45,0,0,1,1.47-1.38,5.31,5.31,0,0,1,1.59-.76,6.66,6.66,0,0,1,1.87-.25,5.49,5.49,0,0,1,2.67.64,5,5,0,0,1,2.4,3.44,12.49,12.49,0,0,1,.15,2v6.1a12.84,12.84,0,0,0,5.44-10.5c0-.15,0-.3,0-.46h0Z"/><path class="cls-1" d="M25.71,10.24h0A2.34,2.34,0,0,0,21,10h0a4,4,0,0,1-.72,2.37l-.13.23a3,3,0,0,1-2.55,1.4,3,3,0,0,1-3-3h0c0-.09,0-.18,0-.28A3.76,3.76,0,0,0,7.38,9.4V4.75a1.22,1.22,0,0,0-2.45,0v8a12.82,12.82,0,0,0-1,.87A2,2,0,0,0,0,14.18H0v9H0A12.85,12.85,0,0,0,6.17,33.89V17.73a2.72,2.72,0,0,1,.51-1.8,1.79,1.79,0,0,1,1.44-.6,1.85,1.85,0,0,1,1.47.61,2.67,2.67,0,0,1,.53,1.8V23.6a8.45,8.45,0,0,1,1.47-1.38,5.31,5.31,0,0,1,1.59-.76,6.66,6.66,0,0,1,1.87-.25,5.49,5.49,0,0,1,2.67.64,5,5,0,0,1,2.4,3.44,12.49,12.49,0,0,1,.15,2v6.1a12.84,12.84,0,0,0,5.44-10.5c0-.15,0-.3,0-.46h0Z"/><path class="cls-1" d="M25.71,10.24h0A2.34,2.34,0,0,0,21,10h0a4,4,0,0,1-.72,2.37l-.13.23a3,3,0,0,1-2.55,1.4,3,3,0,0,1-3-3h0c0-.09,0-.18,0-.28A3.76,3.76,0,0,0,7.38,9.4V4.75a1.22,1.22,0,0,0-2.45,0v8a12.82,12.82,0,0,0-1,.87A2,2,0,0,0,0,14.18H0v9H0A12.85,12.85,0,0,0,6.17,33.89V17.73a2.72,2.72,0,0,1,.51-1.8,1.79,1.79,0,0,1,1.44-.6,1.85,1.85,0,0,1,1.47.61,2.67,2.67,0,0,1,.53,1.8V23.6a8.45,8.45,0,0,1,1.47-1.38,5.31,5.31,0,0,1,1.59-.76,6.66,6.66,0,0,1,1.87-.25,5.49,5.49,0,0,1,2.67.64,5,5,0,0,1,2.4,3.44,12.49,12.49,0,0,1,.15,2v6.1a12.84,12.84,0,0,0,5.44-10.5c0-.15,0-.3,0-.46h0Z"/><path class="cls-1" d="M16.33,28.21a6.12,6.12,0,0,0-.57-2.92,2.23,2.23,0,0,0-2.14-1,3.22,3.22,0,0,0-1.91.6,3.62,3.62,0,0,0-1.27,1.64,10.53,10.53,0,0,0-.32,3.15v5.23a4.29,4.29,0,0,1,0,.58,12.85,12.85,0,0,0,6.26-.18c0-.13,0-.26,0-.39Z"/><path class="cls-1" d="M16.33,28.21a6.12,6.12,0,0,0-.57-2.92,2.23,2.23,0,0,0-2.14-1,3.22,3.22,0,0,0-1.91.6,3.62,3.62,0,0,0-1.27,1.64,10.53,10.53,0,0,0-.32,3.15v5.23a4.29,4.29,0,0,1,0,.58,12.85,12.85,0,0,0,6.26-.18c0-.13,0-.26,0-.39Z"/><path class="cls-1" d="M16.33,28.21a6.12,6.12,0,0,0-.57-2.92,2.23,2.23,0,0,0-2.14-1,3.22,3.22,0,0,0-1.91.6,3.62,3.62,0,0,0-1.27,1.64,10.53,10.53,0,0,0-.32,3.15v5.23a4.29,4.29,0,0,1,0,.58,12.85,12.85,0,0,0,6.26-.18c0-.13,0-.26,0-.39Z"/></g></g></svg>