<svg xmlns="http://www.w3.org/2000/svg" width="18" height="18" viewBox="0 0 18 18">
  <defs>
    <style>
      .cls-1 {
        fill: #fff;
        fill-rule: evenodd;
        opacity: 0.4;
      }
    </style>
  </defs>
  <path id="search" class="cls-1" d="M48.724,38.361a7.357,7.357,0,0,0-12.564-5.2,7.362,7.362,0,0,0,5.2,12.564,7.278,7.278,0,0,0,4.176-1.3L50.11,49,52,47.109l-4.572-4.59a7.141,7.141,0,0,0,1.3-4.158h0Zm-3.888,3.456a4.681,4.681,0,0,1-3.474,1.44,4.869,4.869,0,0,1-3.474-1.44,4.585,4.585,0,0,1-1.44-3.456,4.828,4.828,0,0,1,1.44-3.474,4.911,4.911,0,0,1,6.948,0,4.765,4.765,0,0,1,1.422,3.474A4.6,4.6,0,0,1,44.836,41.817Z" transform="translate(-34 -31)"/>
</svg>
