<?xml version="1.0" encoding="utf-8"?>
<!-- Svg Vector Icons : http://www.sfont.cn -->
<!DOCTYPE svg PUBLIC "-//W3C//DTD SVG 1.1//EN" "http://www.w3.org/Graphics/SVG/1.1/DTD/svg11.dtd">
<svg version="1.1" xmlns="http://www.w3.org/2000/svg" xmlns:xlink="http://www.w3.org/1999/xlink" x="0px" y="0px" viewBox="0 0 1000 1000" enable-background="new 0 0 1000 1000" xml:space="preserve">
<metadata> Svg Vector Icons : http://www.sfont.cn </metadata>
<g><path d="M496.1,358.7c74.3,0,134.7,60.4,134.7,134.7s-60.4,134.7-134.7,134.7c-74.3,0-134.7-60.4-134.7-134.7S421.8,358.7,496.1,358.7 M496.1,298.8c-107.5,0-194.6,87.1-194.6,194.6c0,107.5,87.1,194.6,194.6,194.6c107.5,0,194.6-87.1,194.6-194.6C690.7,385.9,603.6,298.8,496.1,298.8 M977.1,612.2c8.6-36.5,12.9-74,12.9-112.2c0-38.1-4.4-75.7-12.9-112.2c-3.8-16.1-19.9-26.1-36-22.3s-26.1,19.9-22.3,36c7.5,32,11.3,65,11.3,98.5s-3.8,66.5-11.3,98.5c-3.8,16.1,6.2,32.2,22.3,36S973.3,628.3,977.1,612.2L977.1,612.2z M941.7,635.2c1.9,0,3.5,0,4.9,0.1c16.5,0.7,30.5-12.1,31.2-28.6c0.7-16.5-12.1-30.5-28.6-31.2c-2.4-0.1-4.8-0.1-7.5-0.1c-16.5,0-29.9,13.4-29.9,29.9S925.2,635.2,941.7,635.2L941.7,635.2z M843.9,815.3c-12.2-18.8-18.8-40.7-18.8-63.6c0-64.4,52.2-116.6,116.6-116.6c16.5,0,29.9-13.4,29.9-29.9s-13.4-29.9-29.9-29.9c-97.5,0-176.5,79-176.5,176.5c0,34.6,10,67.8,28.5,96.2c9,13.9,27.6,17.8,41.4,8.8C849,847.7,853,829.2,843.9,815.3L843.9,815.3z M641.3,969.3c74.5-22.4,142.4-62.3,198.3-116.1c11.9-11.5,12.3-30.4,0.8-42.3c-11.5-11.9-30.4-12.3-42.3-0.8c-49.1,47.2-108.7,82.3-174,101.9c-15.8,4.8-24.8,21.5-20.1,37.3C608.7,965.1,625.4,974.1,641.3,969.3L641.3,969.3z M394.5,953.4c19.1-40.6,59.9-67,105.5-67c45.6,0,86.5,26.4,105.6,67c7,15,24.9,21.4,39.8,14.3c15-7,21.4-24.9,14.3-39.8C630.9,866.5,569,826.5,500,826.5c-69,0-130.9,40-159.7,101.4c-7,15-0.6,32.8,14.3,39.8C369.6,974.8,387.4,968.3,394.5,953.4L394.5,953.4z M161.7,854.5c55.7,53.1,123.1,92.6,197,114.8c15.8,4.8,32.5-4.2,37.3-20.1c4.8-15.8-4.2-32.5-20.1-37.3c-64.8-19.5-124-54.1-172.9-100.8c-12-11.4-30.9-11-42.3,1C149.3,824.1,149.8,843.1,161.7,854.5L161.7,854.5z M60.3,635.2c64.4,0,116.6,52.2,116.6,116.6c0,23.3-6.8,45.5-19.4,64.5c-9.2,13.8-5.4,32.4,8.4,41.5c13.8,9.2,32.4,5.4,41.5-8.4c19.1-28.7,29.5-62.5,29.5-97.7c0-97.5-79-176.5-176.5-176.5c-16.5,0-29.9,13.4-29.9,29.9S43.8,635.2,60.3,635.2L60.3,635.2z M53.7,635.3c2-0.1,4.2-0.2,6.6-0.2c16.5,0,29.9-13.4,29.9-29.9s-13.4-29.9-29.9-29.9c-3.4,0-6.7,0.1-9.9,0.3c-16.5,0.9-29.2,15-28.3,31.5C23.1,623.6,37.2,636.2,53.7,635.3L53.7,635.3z M22.9,387.7C14.4,424.3,10,461.9,10,500s4.4,75.7,12.9,112.3c3.8,16.1,19.9,26.1,36,22.3c16.1-3.8,26.1-19.9,22.3-36c-7.5-32.1-11.4-65.1-11.4-98.6s3.8-66.5,11.4-98.6c3.8-16.1-6.2-32.2-22.3-36C42.8,361.7,26.7,371.6,22.9,387.7L22.9,387.7z M60.3,364.8c-2.4,0-4.6-0.1-6.6-0.2c-16.5-0.9-30.6,11.7-31.5,28.3c-0.9,16.5,11.7,30.6,28.3,31.5c3.2,0.2,6.4,0.3,9.9,0.3c16.5,0,29.9-13.4,29.9-29.9S76.9,364.8,60.3,364.8L60.3,364.8z M157.5,183.7c12.6,19,19.4,41.2,19.4,64.5c0,64.4-52.2,116.6-116.6,116.6c-16.5,0-29.9,13.4-29.9,29.9s13.4,29.9,29.9,29.9c97.5,0,176.5-79,176.5-176.5c0-35.2-10.4-69-29.5-97.7c-9.2-13.8-27.7-17.5-41.5-8.4S148.3,170,157.5,183.7L157.5,183.7z M358.7,30.7c-73.9,22.2-141.3,61.7-197,114.8c-12,11.4-12.4,30.4-1,42.3c11.4,12,30.4,12.4,42.3,1c48.9-46.7,108-81.3,172.9-100.8c15.8-4.8,24.8-21.5,20.1-37.3C391.3,34.9,374.6,25.9,358.7,30.7L358.7,30.7z M605.6,46.6c-19.1,40.6-59.9,67-105.5,67c-45.6,0-86.5-26.4-105.6-67c-7-15-24.9-21.4-39.8-14.3c-15,7-21.4,24.9-14.3,39.8C369.2,133.5,431,173.5,500,173.5c69,0,130.9-40,159.7-101.4c7-15,0.6-32.8-14.3-39.8C630.4,25.2,612.6,31.7,605.6,46.6L605.6,46.6z M839.6,146.8C783.7,93,715.8,53.1,641.3,30.7c-15.8-4.8-32.5,4.2-37.3,20.1c-4.8,15.8,4.2,32.5,20.1,37.3c65.4,19.7,124.9,54.7,174,101.9c11.9,11.5,30.9,11.1,42.3-0.8C851.9,177.2,851.5,158.2,839.6,146.8L839.6,146.8z M941.7,364.8c-64.4,0-116.6-52.2-116.6-116.6c0-22.9,6.6-44.8,18.8-63.6c9-13.9,5.1-32.4-8.8-41.4c-13.9-9-32.4-5.1-41.4,8.8c-18.5,28.4-28.5,61.6-28.5,96.3c0,97.5,79,176.5,176.5,176.5c16.5,0,29.9-13.4,29.9-29.9S958.2,364.8,941.7,364.8L941.7,364.8z M946.6,364.8c-1.4,0.1-3,0.1-4.9,0.1c-16.5,0-29.9,13.4-29.9,29.9s13.4,29.9,29.9,29.9c2.7,0,5.1,0,7.5-0.1c16.5-0.7,29.3-14.7,28.6-31.2C977.1,376.8,963.2,364,946.6,364.8L946.6,364.8z"/></g>
</svg>