<svg xmlns="http://www.w3.org/2000/svg" xmlns:xlink="http://www.w3.org/1999/xlink" preserveAspectRatio="xMidYMid" width="16.688" height="25" viewBox="0 0 16.688 25">
  <defs>
    <style>
      .cls-1 {
        fill: #fff;
        fill-rule: evenodd;
      }
    </style>
  </defs>
  <path d="M14.403,24.997 L2.291,24.997 C1.034,24.997 0.011,23.971 0.011,22.711 L0.011,6.336 C0.011,5.075 1.034,4.050 2.291,4.050 L2.810,4.050 C2.893,4.050 2.971,4.067 3.045,4.092 C3.290,3.111 4.175,2.381 5.228,2.381 L6.150,2.381 C6.139,2.293 6.133,2.203 6.133,2.112 C6.133,0.945 7.080,-0.005 8.243,-0.005 C9.406,-0.005 10.353,0.945 10.353,2.112 C10.353,2.203 10.347,2.293 10.336,2.381 L11.258,2.381 C12.335,2.381 13.236,3.143 13.458,4.157 C13.567,4.090 13.694,4.050 13.831,4.050 L14.403,4.050 C15.660,4.050 16.682,5.075 16.682,6.336 L16.682,22.711 C16.682,23.971 15.660,24.997 14.403,24.997 ZM11.258,3.825 L9.221,3.825 C8.929,3.825 8.666,3.648 8.555,3.377 C8.444,3.107 8.508,2.795 8.715,2.590 C8.843,2.462 8.914,2.293 8.914,2.112 C8.914,1.741 8.613,1.439 8.243,1.439 C7.873,1.439 7.572,1.741 7.572,2.112 C7.572,2.293 7.643,2.462 7.771,2.590 C7.978,2.795 8.042,3.107 7.930,3.377 C7.820,3.648 7.557,3.825 7.265,3.825 L5.228,3.825 C4.779,3.825 4.414,4.191 4.414,4.641 C4.414,5.092 4.779,5.458 5.228,5.458 L11.258,5.458 C11.707,5.458 12.072,5.092 12.072,4.641 C12.072,4.191 11.707,3.825 11.258,3.825 ZM15.243,6.336 C15.243,5.871 14.866,5.493 14.403,5.493 L13.831,5.493 C13.668,5.493 13.519,5.436 13.398,5.344 C13.103,6.247 12.256,6.901 11.258,6.901 L5.228,6.901 C4.260,6.901 3.434,6.284 3.116,5.422 C3.023,5.467 2.920,5.493 2.810,5.493 L2.291,5.493 C1.827,5.493 1.451,5.871 1.451,6.336 L1.451,22.711 C1.451,23.175 1.827,23.553 2.291,23.553 L14.403,23.553 C14.866,23.553 15.243,23.175 15.243,22.711 L15.243,6.336 ZM12.792,19.791 L6.397,19.791 C6.000,19.791 5.678,19.468 5.678,19.069 C5.678,18.670 6.000,18.347 6.397,18.347 L12.792,18.347 C13.189,18.347 13.511,18.670 13.511,19.069 C13.511,19.468 13.189,19.791 12.792,19.791 ZM12.792,15.823 L6.397,15.823 C6.000,15.823 5.678,15.500 5.678,15.101 C5.678,14.703 6.000,14.380 6.397,14.380 L12.792,14.380 C13.189,14.380 13.511,14.703 13.511,15.101 C13.511,15.500 13.189,15.823 12.792,15.823 ZM12.792,11.855 L6.397,11.855 C6.000,11.855 5.678,11.532 5.678,11.134 C5.678,10.735 6.000,10.412 6.397,10.412 L12.792,10.412 C13.189,10.412 13.511,10.735 13.511,11.134 C13.511,11.532 13.189,11.855 12.792,11.855 ZM4.214,19.791 L4.058,19.791 C3.661,19.791 3.339,19.468 3.339,19.069 C3.339,18.670 3.661,18.347 4.058,18.347 L4.214,18.347 C4.611,18.347 4.934,18.670 4.934,19.069 C4.934,19.468 4.611,19.791 4.214,19.791 ZM4.214,15.823 L4.058,15.823 C3.661,15.823 3.339,15.500 3.339,15.101 C3.339,14.703 3.661,14.380 4.058,14.380 L4.214,14.380 C4.611,14.380 4.934,14.703 4.934,15.101 C4.934,15.500 4.611,15.823 4.214,15.823 ZM4.214,11.855 L4.058,11.855 C3.661,11.855 3.339,11.532 3.339,11.134 C3.339,10.735 3.661,10.412 4.058,10.412 L4.214,10.412 C4.611,10.412 4.934,10.735 4.934,11.134 C4.934,11.532 4.611,11.855 4.214,11.855 Z" class="cls-1"/>
</svg>
