<svg xmlns="http://www.w3.org/2000/svg" xmlns:xlink="http://www.w3.org/1999/xlink" preserveAspectRatio="xMidYMid" width="21.969" height="30.219" viewBox="0 0 21.969 30.219">
  <defs>
    <style>
      .cls-1 {
        fill: #231f20;
        fill-rule: evenodd;
      }
    </style>
  </defs>
  <path d="M21.124,28.481 L19.749,29.997 C19.628,30.130 19.456,30.206 19.275,30.206 L2.704,30.206 C2.523,30.206 2.351,30.130 2.231,29.997 L0.833,28.458 C-0.337,27.296 -0.282,25.312 0.979,24.060 L8.440,16.982 L8.440,12.105 L7.352,11.024 C7.158,10.832 7.110,10.537 7.233,10.294 L7.870,9.027 C7.978,8.813 8.199,8.677 8.440,8.677 L13.539,8.677 C13.781,8.677 14.001,8.813 14.109,9.027 L14.747,10.294 C14.869,10.537 14.821,10.832 14.627,11.024 L13.539,12.105 L13.539,16.982 L20.990,24.049 C22.262,25.312 22.317,27.296 21.124,28.481 ZM12.462,17.712 C12.336,17.592 12.264,17.426 12.264,17.253 L12.264,11.843 C12.264,11.675 12.332,11.514 12.451,11.396 L13.401,10.452 L13.145,9.944 L8.834,9.944 L8.578,10.452 L9.528,11.396 C9.648,11.514 9.715,11.675 9.715,11.843 L9.715,17.253 C9.715,17.426 9.644,17.592 9.518,17.712 L1.869,24.966 C1.116,25.714 1.061,26.894 1.757,27.586 L2.987,28.940 L4.984,28.940 L3.626,27.658 C2.951,26.986 2.951,25.912 3.615,25.252 L8.220,20.883 C8.339,20.771 8.497,20.708 8.661,20.708 L15.621,20.708 L12.462,17.712 ZM20.100,24.955 L16.957,21.975 L8.916,21.975 L4.506,26.158 C4.349,26.314 4.349,26.585 4.516,26.751 L6.833,28.940 L18.992,28.940 L20.200,27.609 C20.918,26.894 20.863,25.714 20.100,24.955 ZM11.360,3.652 C12.036,4.483 13.058,5.740 11.228,7.827 L10.267,6.995 C11.394,5.710 11.030,5.261 10.368,4.447 C9.424,3.284 8.757,2.069 10.945,-0.012 L11.826,0.903 C10.303,2.351 10.679,2.813 11.360,3.652 Z" class="cls-1"/>
</svg>
