<svg xmlns="http://www.w3.org/2000/svg" viewBox="0 0 187.75 207.1"><defs><style>.cls-1{fill:#b5b5b5;}.cls-2{fill:#ceced0;}.cls-3{fill:#2d2d2d;}.cls-4{fill:#3d3d3d;}.cls-5{fill:#474747;}.cls-6{fill:#232323;}.cls-7{fill:#f5f5f5;}.cls-8{fill:#e4e4e6;}.cls-9{fill:#cacacc;}.cls-10{fill:#9f9fa0;}.cls-11{fill:#d8d8d8;}</style></defs><title>资源 3</title><g id="图层_2" data-name="图层 2"><g id="ëÎÓÈ_1" data-name="ëÎÓÈ 1"><polygon class="cls-1" points="133.27 136.61 133.27 163.39 137.37 167.06 137.37 206.77 138.74 207.1 140.1 205.19 140.1 165.48 144.21 157.07 144.21 130.29 138.74 133.45 133.27 136.61"/><polygon class="cls-1" points="148.6 127.75 148.6 154.54 152.71 158.2 152.71 197.91 154.07 198.25 155.44 196.33 155.44 156.62 159.54 148.22 159.54 121.44 154.07 124.6 148.6 127.75"/><polygon class="cls-1" points="163.94 118.9 163.94 145.68 168.04 149.35 168.04 189.06 169.41 189.4 170.78 187.48 170.78 147.77 174.88 139.37 174.88 112.58 169.41 115.74 163.94 118.9"/><polygon class="cls-2" points="133.91 136.61 133.91 163.39 138.01 167.06 138.01 206.77 139.38 207.1 140.75 205.19 140.75 165.48 144.85 157.07 144.85 130.29 139.38 133.45 133.91 136.61"/><polygon class="cls-2" points="149.25 127.75 149.25 154.54 153.35 158.2 153.35 197.91 154.72 198.25 156.09 196.33 156.09 156.62 160.19 148.22 160.19 121.44 154.72 124.6 149.25 127.75"/><polygon class="cls-2" points="164.58 118.9 164.58 145.68 168.69 149.35 168.69 189.06 170.05 189.4 171.42 187.48 171.42 147.77 175.52 139.37 175.52 112.58 170.05 115.74 164.58 118.9"/><polygon class="cls-3" points="187.75 108.25 157.08 125.96 126.41 143.66 126.41 116.64 126.41 89.61 157.08 71.9 187.75 54.2 187.75 108.25"/><polygon class="cls-4" points="107.53 132.77 126.41 143.66 126.41 89.61 107.53 78.72 107.53 132.77"/><polygon class="cls-5" points="126.41 89.61 107.53 78.72 168.87 43.3 187.75 54.2 126.41 89.61"/><path class="cls-4" d="M166.5,93.87c0,5.8-4.08,12.86-9.1,15.77-3.29,1.9-6.17,1.55-7.77-.55a7.68,7.68,0,0,1-1.33-4.7c0-5.8,4.08-12.86,9.1-15.77A7.76,7.76,0,0,1,162,87.4C164.71,87.69,166.5,90,166.5,93.87Z"/><path class="cls-6" d="M163.36,92.12c0,5.81-4,12.87-9,15.77a7.43,7.43,0,0,1-4.74,1.19,7.68,7.68,0,0,1-1.33-4.7c0-5.8,4.08-12.86,9.1-15.77A7.76,7.76,0,0,1,162,87.4,7.74,7.74,0,0,1,163.36,92.12Z"/><polygon class="cls-2" points="175.95 47.39 114.61 82.8 114.61 39.5 175.95 4.09 175.95 47.39"/><path class="cls-1" d="M149.33,28.16a11.86,11.86,0,0,1,.71,4.26c0,7.55-5.3,16.72-11.83,20.5a11.85,11.85,0,0,1-4,1.52c1.65,4.29,6,5.52,11.12,2.57,6.54-3.77,11.83-12.95,11.83-20.5C157.12,30.61,153.87,27.45,149.33,28.16Z"/><path class="cls-7" d="M150,32.43a11.86,11.86,0,0,0-.71-4.26,11.86,11.86,0,0,0-4,1.52c-6.54,3.77-11.83,12.95-11.83,20.5a11.87,11.87,0,0,0,.71,4.26,11.85,11.85,0,0,0,4-1.52C144.74,49.15,150,40,150,32.43Z"/><polygon class="cls-1" points="107.53 78.72 114.61 82.8 114.61 39.5 107.53 35.41 107.53 78.72"/><polygon class="cls-8" points="114.61 39.5 107.53 35.41 138.2 17.71 168.88 0 175.95 4.09 150.28 18.91 114.61 39.5"/><path class="cls-9" d="M139.76,86l.85-.49v6.77l2.81-1.62v.82l-3.66,2.11Z"/><path class="cls-9" d="M148.17,81.44v.65l-2.76,8.26-.89.51,2.75-8.07v0l-3.1,1.79v-.82Z"/><path class="cls-9" d="M149,86.43a4.06,4.06,0,0,1,1.26-2.69v0c-.7,0-1-.43-1-1.06a3.88,3.88,0,0,1,2-3.08c1.23-.71,1.84-.17,1.84.74a3.58,3.58,0,0,1-1,2.31v0c.79-.1,1.28.26,1.28,1.15a4.27,4.27,0,0,1-2.16,3.37C149.78,88,149,87.5,149,86.43Zm3.42-2c0-.89-.54-1-1.4-.79a3.1,3.1,0,0,0-1.14,2.17c0,.76.46,1.13,1.27.66A2.5,2.5,0,0,0,152.4,84.42ZM150,82.12c0,.73.48.85,1.21.65a2.83,2.83,0,0,0,1-1.89c0-.59-.3-1-1.07-.57A2.2,2.2,0,0,0,150,82.12Z"/><path class="cls-9" d="M158.28,79.18c0,2.49-.8,4.32-2.21,5.14-1.24.71-2.08-.14-2.1-2.55s.92-4.34,2.2-5.08S158.28,76.85,158.28,79.18Zm-3.44,2.1c0,1.9.51,2.69,1.29,2.24s1.3-1.93,1.3-3.8-.4-2.75-1.29-2.24S154.84,79.29,154.84,81.29Z"/><path class="cls-9" d="M159,80.65A4.06,4.06,0,0,1,160.25,78v0c-.7,0-1-.43-1-1.06a3.88,3.88,0,0,1,2-3.08c1.23-.71,1.84-.17,1.84.74a3.58,3.58,0,0,1-1,2.31v0c.79-.1,1.28.26,1.28,1.15a4.27,4.27,0,0,1-2.16,3.37C159.79,82.18,159,81.72,159,80.65Zm3.42-2c0-.89-.54-1-1.4-.79A3.1,3.1,0,0,0,159.87,80c0,.76.46,1.13,1.27.66A2.5,2.5,0,0,0,162.41,78.64ZM160,76.34c0,.73.48.85,1.21.65a2.83,2.83,0,0,0,1-1.89c0-.59-.3-1-1.07-.57A2.2,2.2,0,0,0,160,76.34Z"/><path class="cls-9" d="M164.38,71.81l.85-.49v6.77L168,76.47v.82l-3.66,2.11Z"/><path class="cls-9" d="M173.19,74.07a7.21,7.21,0,0,1-1.74,1.36c-1.85,1.07-3.25.52-3.25-2a7.13,7.13,0,0,1,3.43-6,3.37,3.37,0,0,1,1.56-.56l-.21.92a2.91,2.91,0,0,0-1.33.45,5.28,5.28,0,0,0-2.57,4.61c0,1.86.93,2.52,2.53,1.59A5.87,5.87,0,0,0,173,73.39Z"/><path class="cls-9" d="M141.32,122.2h0l-1.1,1.32-.17-.66,1.38-1.66.73-.42v7.32l-.83.48Z"/><path class="cls-9" d="M148.67,120.61c0,2.49-.8,4.33-2.2,5.14-1.24.72-2.08-.14-2.1-2.55s.92-4.34,2.21-5.08S148.67,118.28,148.67,120.61Zm-3.44,2.1c0,1.9.51,2.69,1.29,2.24s1.3-1.93,1.3-3.8-.4-2.75-1.29-2.24S145.23,120.72,145.23,122.71Z"/><path class="cls-9" d="M149.67,122.64a2.37,2.37,0,0,0,1.4-.35A2.68,2.68,0,0,0,152.5,120c0-1-.81-1-1.64-.52l-.48.28v-.74l.48-.28a2.74,2.74,0,0,0,1.42-2.06c0-.59-.32-.92-1.11-.46a4.57,4.57,0,0,0-1.27,1.22l-.22-.59a5.75,5.75,0,0,1,1.66-1.52c1.25-.72,1.82-.19,1.82.7a3.53,3.53,0,0,1-1.17,2.4v0c.78-.27,1.41,0,1.41,1.06a4.37,4.37,0,0,1-2.31,3.53,2.77,2.77,0,0,1-1.65.46Z"/><path class="cls-9" d="M158.17,115.31l-2.56,1.48v2.74l2.85-1.64v.82l-3.7,2.13v-7.59l3.55-2V112l-2.7,1.56V116l2.56-1.48Z"/><polygon class="cls-10" points="137.37 206.77 138.01 206.77 139.38 207.1 138.74 207.1 137.37 206.77"/><polygon class="cls-10" points="152.71 197.91 153.35 197.91 154.72 198.25 154.07 198.25 152.71 197.91"/><polygon class="cls-10" points="168.04 189.06 168.69 189.06 170.05 189.4 169.41 189.4 168.04 189.06"/><polygon class="cls-10" points="133.27 163.39 133.91 163.39 138.01 167.06 137.37 167.06 133.27 163.39"/><polygon class="cls-10" points="148.6 154.54 149.25 154.54 153.35 158.2 152.71 158.2 148.6 154.54"/><polygon class="cls-10" points="163.94 145.68 164.58 145.68 168.69 149.35 168.04 149.35 163.94 145.68"/><polygon class="cls-1" points="25.73 134.4 25.73 161.18 29.84 164.84 29.84 204.55 31.21 204.89 32.57 202.97 32.57 163.26 36.68 154.86 36.68 128.08 31.21 131.24 25.73 134.4"/><polygon class="cls-1" points="41.07 125.54 41.07 152.32 45.17 155.99 45.17 195.7 46.54 196.04 47.91 194.12 47.91 154.41 52.01 146.01 52.01 119.22 46.54 122.38 41.07 125.54"/><polygon class="cls-1" points="56.41 116.69 56.41 143.47 60.51 147.13 60.51 186.85 61.88 187.18 63.24 185.27 63.24 145.56 67.35 137.15 67.35 110.37 61.88 113.53 56.41 116.69"/><polygon class="cls-2" points="26.38 134.4 26.38 161.18 30.48 164.84 30.48 204.55 31.85 204.89 33.22 202.97 33.22 163.26 37.32 154.86 37.32 128.08 31.85 131.24 26.38 134.4"/><polygon class="cls-2" points="41.72 125.54 41.72 152.32 45.82 155.99 45.82 195.7 47.19 196.04 48.55 194.12 48.55 154.41 52.66 146.01 52.66 119.22 47.19 122.38 41.72 125.54"/><polygon class="cls-2" points="57.05 116.69 57.05 143.47 61.15 147.13 61.15 186.85 62.52 187.18 63.89 185.27 63.89 145.56 67.99 137.15 67.99 110.37 62.52 113.53 57.05 116.69"/><polygon class="cls-4" points="0 130.55 18.88 141.45 18.87 87.4 0 76.5 0 130.55"/><polygon class="cls-5" points="18.88 87.4 0 76.5 61.34 41.09 80.22 51.98 18.88 87.4"/><polygon class="cls-2" points="68.42 45.17 7.08 80.59 7.08 48.11 14.75 32.86 60.75 6.3 68.42 12.7 68.42 45.17"/><path class="cls-1" d="M41.8,25.95a11.85,11.85,0,0,1,.71,4.26c0,7.55-5.3,16.72-11.83,20.5a11.87,11.87,0,0,1-4,1.52c1.65,4.29,6,5.52,11.12,2.57C44.29,51,49.58,41.84,49.58,34.3,49.58,28.39,46.34,25.24,41.8,25.95Z"/><path class="cls-7" d="M42.51,30.21a11.85,11.85,0,0,0-.71-4.26,11.84,11.84,0,0,0-4,1.52C31.21,31.24,25.92,40.42,25.92,48a11.88,11.88,0,0,0,.71,4.26,11.87,11.87,0,0,0,4-1.52C37.21,46.93,42.51,37.76,42.51,30.21Z"/><polygon class="cls-1" points="0 76.5 7.08 80.59 7.08 48.11 0 44.03 0 76.5"/><polygon class="cls-8" points="14.75 32.86 7.67 28.77 53.68 2.21 60.75 6.3 14.75 32.86"/><polygon class="cls-11" points="7.67 28.77 14.75 32.86 7.08 48.11 0 44.03 7.67 28.77"/><polygon class="cls-10" points="29.84 204.55 30.48 204.55 31.85 204.89 31.21 204.89 29.84 204.55"/><polygon class="cls-10" points="45.17 195.7 45.82 195.7 47.19 196.04 46.54 196.04 45.17 195.7"/><polygon class="cls-10" points="60.51 186.85 61.15 186.85 62.52 187.18 61.88 187.18 60.51 186.85"/><polygon class="cls-10" points="25.73 161.18 26.38 161.18 30.48 164.84 29.84 164.84 25.73 161.18"/><polygon class="cls-10" points="41.07 152.32 41.72 152.32 45.82 155.99 45.17 155.99 41.07 152.32"/><polygon class="cls-10" points="56.41 143.47 57.05 143.47 61.15 147.13 60.51 147.13 56.41 143.47"/><path class="cls-3" d="M77.86,94.44V81.26a11.77,11.77,0,0,1,2.36-1.83h0V52L49.54,69.69,18.87,87.4v54.05l30.67-17.71L80.22,106V95.8Z"/><path class="cls-4" d="M80.22,95.8c-2.56,1.48-4.81,1.21-6.05-.43a6,6,0,0,1-1-3.66,15.86,15.86,0,0,1,4.73-10.45V94.44h0Z"/><path class="cls-6" d="M77.86,81.26V94.44a5.78,5.78,0,0,1-3.69.93,6,6,0,0,1-1-3.66A15.86,15.86,0,0,1,77.86,81.26Z"/><path class="cls-9" d="M33.94,91l.85-.49v6.77l2.81-1.62v.82l-3.66,2.11Z"/><path class="cls-9" d="M42.35,86.4v.65l-2.76,8.26-.89.51,2.75-8.07v0l-3.1,1.79v-.82Z"/><path class="cls-9" d="M43.16,91.4a4.06,4.06,0,0,1,1.26-2.69v0c-.7,0-1-.43-1-1.06a3.88,3.88,0,0,1,2-3.08c1.23-.71,1.84-.17,1.84.74a3.58,3.58,0,0,1-1,2.31v0c.79-.1,1.28.27,1.28,1.15a4.27,4.27,0,0,1-2.16,3.37C44,92.92,43.16,92.47,43.16,91.4Zm3.41-2c0-.89-.54-1-1.4-.79A3.1,3.1,0,0,0,44,90.75c0,.76.46,1.13,1.27.66A2.5,2.5,0,0,0,46.58,89.38Zm-2.36-2.3c0,.73.48.85,1.21.65a2.83,2.83,0,0,0,1-1.89c0-.59-.3-1-1.07-.57A2.2,2.2,0,0,0,44.22,87.08Z"/><path class="cls-9" d="M52.46,84.15c0,2.49-.8,4.33-2.2,5.14-1.24.71-2.08-.14-2.1-2.55s.92-4.34,2.2-5.08S52.46,81.82,52.46,84.15ZM49,86.25c0,1.9.51,2.69,1.29,2.24s1.3-1.93,1.3-3.8-.4-2.75-1.29-2.24S49,84.25,49,86.25Z"/><path class="cls-9" d="M53.17,85.62a4.06,4.06,0,0,1,1.26-2.69v0c-.7,0-1-.43-1-1.06a3.88,3.88,0,0,1,2-3.08c1.23-.71,1.84-.17,1.84.74a3.58,3.58,0,0,1-1,2.32v0c.79-.1,1.28.26,1.28,1.15a4.27,4.27,0,0,1-2.16,3.37C54,87.14,53.17,86.69,53.17,85.62Zm3.41-2c0-.89-.54-1-1.4-.79A3.1,3.1,0,0,0,54,85c0,.76.46,1.13,1.27.67A2.5,2.5,0,0,0,56.59,83.6Zm-2.36-2.3c0,.73.48.85,1.21.65a2.83,2.83,0,0,0,1-1.89c0-.59-.3-1-1.07-.57A2.2,2.2,0,0,0,54.22,81.3Z"/><path class="cls-9" d="M58.56,76.78l.85-.49v6.77l2.81-1.62v.82l-3.66,2.11Z"/><path class="cls-9" d="M67.37,79a7.21,7.21,0,0,1-1.74,1.36c-1.85,1.07-3.25.52-3.25-2a7.13,7.13,0,0,1,3.43-6,3.36,3.36,0,0,1,1.56-.56l-.21.92a2.92,2.92,0,0,0-1.33.45,5.28,5.28,0,0,0-2.57,4.61c0,1.86.93,2.52,2.53,1.59a5.88,5.88,0,0,0,1.38-1.12Z"/><path class="cls-9" d="M35.5,104.8h0l-1.1,1.32-.17-.66,1.39-1.66.73-.42v7.32l-.83.48Z"/><path class="cls-9" d="M42.85,103.21c0,2.49-.8,4.33-2.21,5.14-1.24.71-2.08-.14-2.1-2.55s.92-4.34,2.21-5.08S42.85,100.88,42.85,103.21Zm-3.44,2.1c0,1.9.51,2.69,1.29,2.24s1.3-1.93,1.3-3.8-.4-2.75-1.29-2.24S39.41,103.32,39.41,105.31Z"/><path class="cls-9" d="M43.85,105.24a2.37,2.37,0,0,0,1.41-.35,2.68,2.68,0,0,0,1.43-2.25c0-1-.81-1-1.64-.52l-.48.28v-.74l.48-.28a2.74,2.74,0,0,0,1.41-2.06c0-.59-.32-.92-1.11-.46a4.56,4.56,0,0,0-1.27,1.22l-.23-.59A5.77,5.77,0,0,1,45.51,98c1.25-.72,1.81-.19,1.81.7a3.53,3.53,0,0,1-1.17,2.4v0c.78-.27,1.41,0,1.41,1.06a4.37,4.37,0,0,1-2.31,3.53,2.77,2.77,0,0,1-1.65.46Z"/><path class="cls-9" d="M52.35,97.91,49.8,99.38v2.74l2.85-1.64v.82l-3.7,2.13V95.84l3.55-2v.82l-2.7,1.56v2.4l2.56-1.48Z"/><path class="cls-4" d="M26,118.94a15.66,15.66,0,0,1-7.09,12.27V114.84a6,6,0,0,1,3.61-.94C24.57,114.12,26,115.94,26,118.94Z"/><path class="cls-6" d="M18.87,114.84V128a11.74,11.74,0,0,1-2.36,1.86V113.48Z"/><path class="cls-6" d="M23.51,117.57A16,16,0,0,1,18.87,128V114.84a6,6,0,0,1,3.61-.94A6,6,0,0,1,23.51,117.57Z"/><polygon class="cls-4" points="16.52 113.48 18.88 114.84 18.87 112.57 16.52 111.06 16.52 113.48"/></g></g></svg>