<svg xmlns="http://www.w3.org/2000/svg" viewBox="0 0 58.74 138.71"><defs><style>.cls-1{fill:#2d2d2d;}.cls-2{fill:#3d3d3d;}.cls-3{fill:#3e3e3e;}.cls-4{fill:#3f3f3f;}.cls-5{fill:#404040;}.cls-6{fill:#414141;}.cls-7{fill:#424242;}.cls-8{fill:#434343;}.cls-9{fill:#444;}.cls-10{fill:#454545;}.cls-11{fill:#464646;}.cls-12{fill:#474747;}.cls-13{fill:#484848;}.cls-14{fill:#494949;}.cls-15{fill:#4a4a4a;}.cls-16{fill:#4b4b4b;}.cls-17{fill:#4c4c4c;}.cls-18{fill:#cacacc;}</style></defs><title>资源 1</title><g id="图层_2" data-name="图层 2"><g id="ëÎÓÈ_1" data-name="ëÎÓÈ 1"><path class="cls-1" d="M24.26,138.71a1,1,0,0,0,1-1V68.39a1,1,0,0,0-1.94,0v69.35A1,1,0,0,0,24.26,138.71Z"/><path class="cls-1" d="M34.11,133a1,1,0,0,0,1-1V62.71a1,1,0,0,0-1.94,0v69.35A1,1,0,0,0,34.11,133Z"/><path class="cls-1" d="M44,127.34a1,1,0,0,0,1-1V57A1,1,0,0,0,43,57v69.35A1,1,0,0,0,44,127.34Z"/><path class="cls-1" d="M8.91,73a33.41,33.41,0,0,0,4.94,2.31,41.76,41.76,0,0,0,5.49,1.63L39,65.55l19.7-11.37A17,17,0,0,0,55.92,51a24.48,24.48,0,0,0-4-2.85C46,44.73,38.19,43,30.41,43s-15.56,1.71-21.5,5.14S0,56.08,0,60.57,3,69.55,8.91,73Z"/><polygon class="cls-2" points="58.74 11.16 39.04 22.54 19.34 33.91 19.34 55.42 19.34 76.92 39.04 65.55 58.74 54.18 58.74 32.67 58.74 11.16"/><polygon class="cls-1" points="0 17.56 19.34 33.91 19.34 76.92 0 60.57 0 17.56"/><path class="cls-2" d="M8.91,30a33.51,33.51,0,0,0,4.94,2.31,41.76,41.76,0,0,0,5.49,1.63L39,22.54l19.7-11.37A17,17,0,0,0,55.92,8a24.46,24.46,0,0,0-4-2.85C46,1.71,38.19,0,30.41,0S14.84,1.71,8.91,5.14,0,13.06,0,17.56,3,26.54,8.91,30Z"/><path class="cls-3" d="M9,29.84a33.33,33.33,0,0,0,4.91,2.3,41.54,41.54,0,0,0,5.46,1.62L39,22.44l19.6-11.32A16.89,16.89,0,0,0,55.78,8a24.33,24.33,0,0,0-4-2.84C45.89,1.72,38.14,0,30.4,0S14.92,1.72,9,5.13.15,13,.15,17.49,3.1,26.43,9,29.84Z"/><path class="cls-4" d="M9.12,29.7A33.14,33.14,0,0,0,14,32a41.32,41.32,0,0,0,5.43,1.61l19.5-11.26,19.5-11.26A16.8,16.8,0,0,0,55.64,8a24.2,24.2,0,0,0-4-2.82C45.8,1.74,38.1,0,30.4,0S15,1.74,9.12,5.13.3,13,.3,17.42,3.24,26.31,9.12,29.7Z"/><path class="cls-5" d="M9.22,29.57a33,33,0,0,0,4.86,2.28,41.1,41.1,0,0,0,5.4,1.6l19.4-11.2,19.4-11.2a16.71,16.71,0,0,0-2.78-3.12,24.07,24.07,0,0,0-3.95-2.81C45.71,1.75,38.05.06,30.39.06S15.07,1.75,9.22,5.12.45,12.92.45,17.34,3.38,26.19,9.22,29.57Z"/><path class="cls-6" d="M9.33,29.43a32.78,32.78,0,0,0,4.84,2.27,40.87,40.87,0,0,0,5.38,1.59L38.84,22.15,58.13,11a16.63,16.63,0,0,0-2.76-3.1,23.94,23.94,0,0,0-3.93-2.79C45.63,1.76,38,.08,30.39.08s-15.24,1.68-21.06,5S.61,12.87.61,17.27,3.51,26.08,9.33,29.43Z"/><path class="cls-7" d="M9.43,29.3a32.59,32.59,0,0,0,4.81,2.25,40.65,40.65,0,0,0,5.35,1.59L38.79,22.06,58,11a16.54,16.54,0,0,0-2.75-3.09,23.81,23.81,0,0,0-3.91-2.78C45.54,1.77,38,.1,30.38.1s-15.16,1.67-20.95,5S.76,12.83.76,17.2,3.65,26,9.43,29.3Z"/><path class="cls-8" d="M9.54,29.16a32.41,32.41,0,0,0,4.79,2.24A40.43,40.43,0,0,0,19.65,33L38.74,22l19.09-11A16.45,16.45,0,0,0,55.1,7.87,23.68,23.68,0,0,0,51.21,5.1c-5.75-3.32-13.3-5-20.84-5S15.29,1.78,9.54,5.1.91,12.78.91,17.13,3.78,25.84,9.54,29.16Z"/><path class="cls-9" d="M9.64,29a32.23,32.23,0,0,0,4.76,2.23,40.21,40.21,0,0,0,5.29,1.57l19-11,19-11A16.37,16.37,0,0,0,55,7.85,23.55,23.55,0,0,0,51.1,5.1c-5.72-3.3-13.22-5-20.73-5s-15,1.65-20.73,5-8.59,7.64-8.59,12S3.92,25.73,9.64,29Z"/><path class="cls-10" d="M9.75,28.9a32,32,0,0,0,4.74,2.22,40,40,0,0,0,5.26,1.56L38.64,21.77,57.53,10.86a16.28,16.28,0,0,0-2.7-3A23.42,23.42,0,0,0,51,5.09C45.29,1.8,37.83.16,30.36.16S15.44,1.8,9.75,5.09,1.21,12.69,1.21,17,4.06,25.61,9.75,28.9Z"/><path class="cls-10" d="M9.86,28.76A31.86,31.86,0,0,0,14.57,31a39.76,39.76,0,0,0,5.23,1.55L38.59,21.67,57.38,10.83a16.19,16.19,0,0,0-2.69-3,23.29,23.29,0,0,0-3.82-2.72C45.2,1.82,37.78.18,30.36.18S15.52,1.82,9.86,5.08,1.36,12.64,1.36,16.92,4.19,25.49,9.86,28.76Z"/><path class="cls-11" d="M10,28.63a31.68,31.68,0,0,0,4.69,2.2,39.54,39.54,0,0,0,5.21,1.54L38.54,21.58,57.22,10.79a16.1,16.1,0,0,0-2.67-3,23.16,23.16,0,0,0-3.8-2.71C45.12,1.83,37.74.2,30.35.2S15.59,1.83,10,5.08,1.51,12.59,1.51,16.85,4.33,25.38,10,28.63Z"/><path class="cls-12" d="M10.07,28.49a31.49,31.49,0,0,0,4.66,2.18,39.32,39.32,0,0,0,5.18,1.54L38.49,21.48,57.07,10.75a16,16,0,0,0-2.66-3,23,23,0,0,0-3.78-2.69C45,1.84,37.69.22,30.35.22S15.67,1.84,10.07,5.07s-8.4,7.47-8.4,11.71S4.46,25.26,10.07,28.49Z"/><path class="cls-13" d="M10.17,28.36a31.31,31.31,0,0,0,4.63,2.17A39.09,39.09,0,0,0,20,32.06L38.44,21.39,56.92,10.72a15.93,15.93,0,0,0-2.64-3,22.9,22.9,0,0,0-3.76-2.68C44.94,1.85,37.64.24,30.34.24S15.74,1.85,10.17,5.06,1.82,12.5,1.82,16.71,4.6,25.14,10.17,28.36Z"/><path class="cls-14" d="M10.28,28.22a31.13,31.13,0,0,0,4.61,2.16A38.87,38.87,0,0,0,20,31.9L38.39,21.29,56.77,10.68a15.84,15.84,0,0,0-2.63-3A22.77,22.77,0,0,0,50.4,5.06C44.86,1.86,37.6.26,30.34.26s-14.52,1.6-20.06,4.8S2,12.45,2,16.64,4.74,25,10.28,28.22Z"/><path class="cls-15" d="M10.38,28.09A30.94,30.94,0,0,0,15,30.24a38.65,38.65,0,0,0,5.09,1.51L38.34,21.19,56.62,10.64A15.75,15.75,0,0,0,54,7.7a22.64,22.64,0,0,0-3.72-2.65C44.77,1.87,37.55.28,30.33.28S15.89,1.87,10.38,5.05,2.12,12.4,2.12,16.57,4.87,24.91,10.38,28.09Z"/><path class="cls-16" d="M10.49,28A30.76,30.76,0,0,0,15,30.09a38.43,38.43,0,0,0,5.06,1.5L38.29,21.1,56.47,10.6a15.67,15.67,0,0,0-2.6-2.92A22.51,22.51,0,0,0,50.17,5C44.69,1.88,37.51.3,30.33.3S16,1.88,10.49,5,2.27,12.36,2.27,16.5,5,24.79,10.49,28Z"/><path class="cls-17" d="M10.59,27.82a30.58,30.58,0,0,0,4.53,2.12,38.2,38.2,0,0,0,5,1.49L38.24,21,56.32,10.57a15.58,15.58,0,0,0-2.59-2.91A22.38,22.38,0,0,0,50.05,5C44.6,1.89,37.46.32,30.32.32S16,1.89,10.59,5,2.42,12.31,2.42,16.43,5.15,24.68,10.59,27.82Z"/><path class="cls-18" d="M26.91,47.14V39l3.15-1.79a1,1,0,0,1,1.1-.09,1.09,1.09,0,0,1,.46,1v.45A2.9,2.9,0,0,1,31.23,40a4,4,0,0,1-1.17,1.23q.78-.44,1.17-.12a1.29,1.29,0,0,1,.39,1v.45a3.09,3.09,0,0,1-.46,1.54,3,3,0,0,1-1.1,1.16Zm1.57-1.8.78-.44a1.53,1.53,0,0,0,.56-.59,1.56,1.56,0,0,0,.23-.77v-.9q0-.9-.79-.45l-.78.44Zm0-3.64.78-.44a1.72,1.72,0,0,0,.79-1.35V39a.49.49,0,0,0-.79-.47l-.78.44Z"/><path class="cls-18" d="M37.91,39.08a3.07,3.07,0,0,1-1.56,2.71l-1.58.89a1,1,0,0,1-1.57-.93V37.23a3.1,3.1,0,0,1,.46-1.54,3,3,0,0,1,1.12-1.17l1.57-.89q1.48-.84,1.56.93l-.78.44q-.09-.86-.78-.47l-.79.45a1.51,1.51,0,0,0-.55.58,1.55,1.55,0,0,0-.23.78v4.53a.55.55,0,0,0,.23.51.52.52,0,0,0,.55,0l.79-.45a1.61,1.61,0,0,0,.78-1.36Z"/><path class="cls-18" d="M28.48,59.32V53l-.78.44V52.5l1.57-1.79.79-.45v8.17Z"/><path class="cls-18" d="M33.19,48.48l4.71-2.68v1.82l-.39,1.12-.4,1.13A12.86,12.86,0,0,0,36.34,53v1.82l-1.58.89V53.93a11.67,11.67,0,0,1,.78-3.17l.79-2.26v-.91l-3.15,1.79Z"/><path class="cls-18" d="M41.06,52.18V45.83l-.78.44v-.91l1.57-1.79.79-.45v8.17Z"/><path class="cls-18" d="M45.77,49.51V41.34l3.15-1.79a1,1,0,0,1,1.1-.09,1.09,1.09,0,0,1,.46,1v.45a2.89,2.89,0,0,1-.39,1.48,4,4,0,0,1-1.17,1.23q.78-.44,1.17-.12a1.29,1.29,0,0,1,.39,1V45A3.09,3.09,0,0,1,50,46.56a3,3,0,0,1-1.1,1.16Zm1.57-1.8.78-.44a1.53,1.53,0,0,0,.56-.59,1.56,1.56,0,0,0,.23-.77V45q0-.9-.79-.45l-.78.44Zm0-3.64.78-.44a1.72,1.72,0,0,0,.79-1.35v-.9a.55.55,0,0,0-.23-.52.54.54,0,0,0-.56.05l-.78.44Z"/></g></g></svg>