<svg xmlns="http://www.w3.org/2000/svg" xmlns:xlink="http://www.w3.org/1999/xlink" preserveAspectRatio="xMidYMid" width="22" height="25" viewBox="0 0 22 25">
  <defs>
    <style>
      .cls-1 {
        fill: #fff;
        fill-rule: evenodd;
      }
    </style>
  </defs>
  <path d="M0.015,24.997 L0.015,14.666 L3.675,10.043 L6.368,10.043 L7.512,11.539 L4.415,11.539 L1.651,15.030 L20.349,15.030 L17.584,11.539 L14.488,11.539 L15.632,10.043 L18.325,10.043 L21.984,14.666 L21.984,24.997 L0.015,24.997 ZM20.468,16.152 L1.532,16.152 L1.532,23.501 L20.468,23.501 L20.468,16.152 ZM6.571,7.729 L8.574,7.729 C8.804,5.515 8.833,1.607 5.087,0.360 L5.583,0.002 C7.845,0.390 11.002,1.557 12.566,4.467 C13.161,5.575 13.440,6.660 13.544,7.729 L15.429,7.729 L11.000,13.521 L6.571,7.729 Z" class="cls-1"/>
</svg>
