<svg xmlns="http://www.w3.org/2000/svg" xmlns:xlink="http://www.w3.org/1999/xlink" preserveAspectRatio="xMidYMid" width="19.969" height="19.969" viewBox="0 0 19.969 19.969">
  <defs>
    <style>
      .cls-1 {
        fill: #fff;
        fill-rule: evenodd;
      }
    </style>
  </defs>
  <path d="M12.025,19.969 L-0.007,15.488 L-0.007,4.795 L7.949,-0.003 L19.980,4.478 L19.980,15.171 L12.025,19.969 ZM1.236,14.610 L11.496,18.430 L11.496,9.708 L1.236,5.887 L1.236,14.610 ZM1.881,5.122 L11.914,8.858 L14.296,7.422 L4.263,3.685 L1.881,5.122 ZM8.076,1.386 L5.942,2.673 L15.975,6.409 L18.109,5.122 L8.076,1.386 ZM18.738,5.841 L16.538,7.168 L16.538,9.025 L14.848,10.034 L14.849,8.186 L12.428,9.646 L12.428,18.261 L18.738,14.455 L18.738,5.841 ZM10.224,17.358 C9.918,17.358 9.670,17.107 9.670,16.797 C9.670,16.488 9.918,16.237 10.224,16.237 C10.529,16.237 10.777,16.488 10.777,16.797 C10.777,17.107 10.529,17.358 10.224,17.358 ZM8.573,16.797 C8.268,16.797 8.020,16.546 8.020,16.237 C8.020,15.928 8.268,15.677 8.573,15.677 C8.879,15.677 9.127,15.928 9.127,16.237 C9.127,16.546 8.879,16.797 8.573,16.797 Z" class="cls-1"/>
</svg>
