<svg xmlns="http://www.w3.org/2000/svg" width="12" height="9" viewBox="0 0 12 9">
  <defs>
    <style>
      .cls-1 {
        fill: #fff;
        fill-rule: evenodd;
      }
    </style>
  </defs>
  <path id="arrow-ffffff" class="cls-1" d="M762.814,458.891a0.841,0.841,0,0,0,.279.641l2.23,2.046h-7.34a1.148,1.148,0,0,0-.687.277,0.752,0.752,0,0,0-.3.642,0.908,0.908,0,0,0,.3.641,0.968,0.968,0,0,0,.687.261h7.34l-2.23,2.063a0.877,0.877,0,0,0,0,1.283,1.014,1.014,0,0,0,1.356,0L769,462.5l-4.553-4.248a1.013,1.013,0,0,0-.687-0.26,0.948,0.948,0,0,0-.669.26A0.845,0.845,0,0,0,762.814,458.891Z" transform="translate(-757 -458)"/>
</svg>
