<svg xmlns="http://www.w3.org/2000/svg" width="21" height="17" viewBox="0 0 21 17">
  <defs>
    <style>
      .cls-1 {
        fill: #444;
        fill-rule: evenodd;
      }
    </style>
  </defs>
  <path id="share-wechat-444444" class="cls-1" d="M1319.7,3616.73a0.952,0.952,0,0,1-.68.23,1.267,1.267,0,0,1-.77-0.25,0.73,0.73,0,0,1-.34-0.65,0.853,0.853,0,0,1,.34-0.67,1.159,1.159,0,0,1,.76-0.27,0.864,0.864,0,0,1,.94.93A0.891,0.891,0,0,1,1319.7,3616.73Zm7.6,5.03a0.993,0.993,0,0,1-.66.22,0.808,0.808,0,0,1-.52-0.24,0.684,0.684,0,0,1-.24-0.51,0.806,0.806,0,0,1,.24-0.5,0.714,0.714,0,0,1,.52-0.23,0.859,0.859,0,0,1,.66.22,0.693,0.693,0,0,1,.25.51A0.672,0.672,0,0,1,1327.3,3621.76Zm-2.41-5.03a0.961,0.961,0,0,1-.69.23,1.218,1.218,0,0,1-.76-0.25,0.792,0.792,0,0,1-.33-0.65,0.842,0.842,0,0,1,.33-0.67,1.179,1.179,0,0,1,.76-0.27,0.879,0.879,0,0,1,.95.93A0.9,0.9,0,0,1,1324.89,3616.73Zm6.48,5.03a0.958,0.958,0,0,1-.66.22,0.806,0.806,0,0,1-.5-0.24,0.709,0.709,0,0,1-.23-0.51,0.846,0.846,0,0,1,.23-0.5,0.7,0.7,0,0,1,.5-0.23,0.859,0.859,0,0,1,.66.22,0.7,0.7,0,0,1,.28.51A0.775,0.775,0,0,1,1331.37,3621.76Zm-3.85-7.25a7.443,7.443,0,0,0-2.68-1.87,9.023,9.023,0,0,0-3.4-.65,8.147,8.147,0,0,0-3.73.82,6.781,6.781,0,0,0-2.71,2.29,5.475,5.475,0,0,0-.99,3.16,6.038,6.038,0,0,0,2.97,5.02l-0.73,2.21,2.58-1.28a3.609,3.609,0,0,1,.52.09,4.525,4.525,0,0,0,.55.11l0.46,0.08c0.22,0.03.41,0.06,0.57,0.07s0.33,0.02.51,0.02a5.8,5.8,0,0,0,.7-0.04,5.07,5.07,0,0,1-.24-1.55,5.274,5.274,0,0,1,.83-2.93,5.9,5.9,0,0,1,2.29-2.14,6.52,6.52,0,0,1,3.18-.79,5.462,5.462,0,0,1,.73.05A5.974,5.974,0,0,0,1327.52,3614.51Zm6.59,5.71a6.007,6.007,0,0,0-2.34-1.97,6.856,6.856,0,0,0-3.1-.72,7.268,7.268,0,0,0-3.17.72,5.627,5.627,0,0,0-2.3,1.95,4.834,4.834,0,0,0-.84,2.71,4.7,4.7,0,0,0,.84,2.69,5.8,5.8,0,0,0,2.3,1.96,7,7,0,0,0,3.17.72,11.385,11.385,0,0,0,2.24-.37l2.04,1.1-0.57-1.85a7.74,7.74,0,0,0,1.91-1.98,4.147,4.147,0,0,0,.7-2.27A4.669,4.669,0,0,0,1334.11,3620.22Z" transform="translate(-1314 -3612)"/>
</svg>
